<?xml version="1.0" encoding="UTF-8"?>
<!DOCTYPE svg PUBLIC "-//W3C//DTD SVG 1.1//EN" "http://www.w3.org/Graphics/SVG/1.1/DTD/svg11.dtd">
<svg xmlns="http://www.w3.org/2000/svg" version="1.1" width="341px" height="329px" style="shape-rendering:geometricPrecision; text-rendering:geometricPrecision; image-rendering:optimizeQuality; fill-rule:evenodd; clip-rule:evenodd" xmlns:xlink="http://www.w3.org/1999/xlink">
<g><path style="opacity:1" fill="#fefdfc" d="M -0.5,-0.5 C 50.1667,-0.5 100.833,-0.5 151.5,-0.5C 78.5295,9.23661 30.0295,48.9033 6,118.5C 3.31477,129.544 1.1481,140.544 -0.5,151.5C -0.5,100.833 -0.5,50.1667 -0.5,-0.5 Z"/></g>
<g><path style="opacity:1" fill="#fefdfd" d="M 173.5,-0.5 C 229.167,-0.5 284.833,-0.5 340.5,-0.5C 340.5,109.167 340.5,218.833 340.5,328.5C 285.167,328.5 229.833,328.5 174.5,328.5C 244.314,320.851 292.481,284.518 319,219.5C 340.211,150.508 325.045,91.0084 273.5,41C 244.653,16.4115 211.32,2.57816 173.5,-0.5 Z"/></g>
<g><path style="opacity:1" fill="#d15604" d="M 151.5,-0.5 C 158.833,-0.5 166.167,-0.5 173.5,-0.5C 211.32,2.57816 244.653,16.4115 273.5,41C 325.045,91.0084 340.211,150.508 319,219.5C 292.481,284.518 244.314,320.851 174.5,328.5C 168.5,328.5 162.5,328.5 156.5,328.5C 89.5904,322.407 41.7571,289.074 13,228.5C 5.22716,209.452 0.727164,189.785 -0.5,169.5C -0.5,163.5 -0.5,157.5 -0.5,151.5C 1.1481,140.544 3.31477,129.544 6,118.5C 30.0295,48.9033 78.5295,9.23661 151.5,-0.5 Z"/></g>
<g><path style="opacity:1" fill="#fefcfc" d="M 158.5,18.5 C 226.521,17.4293 275.688,47.096 306,107.5C 330.735,172.963 318.235,230.129 268.5,279C 225.279,314.764 176.613,324.764 122.5,309C 73.5845,291.085 41.4179,257.251 26,207.5C 11.5143,142.953 29.681,89.7859 80.5,48C 103.889,31.1499 129.889,21.3165 158.5,18.5 Z"/></g>
<g><path style="opacity:1" fill="#d15602" d="M 196.5,41.5 C 216.58,40.5994 228.247,49.9327 231.5,69.5C 230.182,88.818 219.849,99.1513 200.5,100.5C 196.37,100.301 192.37,99.4675 188.5,98C 173.664,87.0332 157.33,84.0332 139.5,89C 135.421,91.0751 131.921,93.9084 129,97.5C 123.859,109.788 117.193,121.122 109,131.5C 104.076,138.444 104.576,144.944 110.5,151C 115.406,152.652 120.406,153.985 125.5,155C 129.39,157.596 132.223,161.096 134,165.5C 141.242,173.076 150.075,175.576 160.5,173C 166.484,167.671 173.151,163.337 180.5,160C 204.234,157.729 214.067,168.229 210,191.5C 202.122,204.601 190.955,208.435 176.5,203C 171.533,199.034 166.866,194.701 162.5,190C 146.64,184.174 135.14,189.008 128,204.5C 127.171,211.234 127.504,217.901 129,224.5C 129.465,225.931 130.299,227.097 131.5,228C 135.581,229.471 139.581,231.138 143.5,233C 149.925,239.421 155.591,246.421 160.5,254C 171.184,260.301 181.517,259.635 191.5,252C 201.167,243.667 210.167,234.667 218.5,225C 236.758,216.205 251.592,220.039 263,236.5C 269.227,254.868 263.727,268.368 246.5,277C 239.588,279.608 232.588,279.942 225.5,278C 204.908,271.307 183.742,268.14 162,268.5C 155.871,267.899 151.038,270.066 147.5,275C 133.672,284.463 120.839,283.296 109,271.5C 103.989,264.458 102.655,256.792 105,248.5C 107.333,243.167 109.667,237.833 112,232.5C 113.46,224.438 110.96,217.938 104.5,213C 95.2509,208.97 87.4176,203.137 81,195.5C 77.482,188.91 76.1486,181.91 77,174.5C 79.5539,167.724 82.8873,161.391 87,155.5C 88.5094,148.206 87.176,141.54 83,135.5C 75.4018,130.9 68.7352,125.233 63,118.5C 55.0867,102.771 57.5867,88.9381 70.5,77C 78.9145,70.9653 88.2478,68.9653 98.5,71C 122.09,82.9188 144.09,80.5854 164.5,64C 170.833,58.3333 177.167,52.6667 183.5,47C 187.686,44.5665 192.02,42.7331 196.5,41.5 Z"/></g>
<g><path style="opacity:1" fill="#fbf2f0" d="M 199.5,53.5 C 207.399,53.5389 209.733,57.0389 206.5,64C 199.243,66.7463 196.077,64.2463 197,56.5C 198.045,55.6266 198.878,54.6266 199.5,53.5 Z"/></g>
<g><path style="opacity:1" fill="#fbf2f1" d="M 92.5,80.5 C 99.169,80.0049 102.336,83.0049 102,89.5C 98.4681,95.2904 94.1348,95.957 89,91.5C 87.6628,86.9159 88.8295,83.2493 92.5,80.5 Z"/></g>
<g><path style="opacity:1" fill="#fbf0ee" d="M 114.5,164.5 C 122.018,164.887 124.518,168.554 122,175.5C 117.845,179.704 114.178,179.371 111,174.5C 109.581,170.082 110.748,166.749 114.5,164.5 Z"/></g>
<g><path style="opacity:1" fill="#fbf2f0" d="M 186.5,170.5 C 193.602,170.073 195.602,172.907 192.5,179C 184.749,180.091 182.749,177.258 186.5,170.5 Z"/></g>
<g><path style="opacity:1" fill="#fefcfc" d="M -0.5,169.5 C 0.727164,189.785 5.22716,209.452 13,228.5C 41.7571,289.074 89.5904,322.407 156.5,328.5C 104.167,328.5 51.8333,328.5 -0.5,328.5C -0.5,275.5 -0.5,222.5 -0.5,169.5 Z"/></g>
<g><path style="opacity:1" fill="#fcf6f5" d="M 234.5,230.5 C 242.161,229.663 245.661,232.996 245,240.5C 241.455,246.209 237.121,246.875 232,242.5C 229.511,237.757 230.345,233.757 234.5,230.5 Z"/></g>
<g><path style="opacity:1" fill="#f9e9e6" d="M 130.5,241.5 C 135.325,241.488 137.491,243.821 137,248.5C 132.907,252.546 129.741,251.879 127.5,246.5C 128.092,244.577 129.092,242.911 130.5,241.5 Z"/></g>
</svg>
