<?xml version="1.0" encoding="UTF-8"?>
<!DOCTYPE svg PUBLIC "-//W3C//DTD SVG 1.1//EN" "http://www.w3.org/Graphics/SVG/1.1/DTD/svg11.dtd">
<svg xmlns="http://www.w3.org/2000/svg" version="1.1" width="624px" height="356px" style="shape-rendering:geometricPrecision; text-rendering:geometricPrecision; image-rendering:optimizeQuality; fill-rule:evenodd; clip-rule:evenodd" xmlns:xlink="http://www.w3.org/1999/xlink">
<g><path style="opacity:1" fill="#fdfdfc" d="M -0.5,-0.5 C 207.5,-0.5 415.5,-0.5 623.5,-0.5C 623.5,118.167 623.5,236.833 623.5,355.5C 415.5,355.5 207.5,355.5 -0.5,355.5C -0.5,236.833 -0.5,118.167 -0.5,-0.5 Z"/></g>
<g><path style="opacity:1" fill="#2a2a2a" d="M 14.5,11.5 C 25.8333,11.5 37.1667,11.5 48.5,11.5C 48.5,24.1667 48.5,36.8333 48.5,49.5C 48.1667,49.5 47.8333,49.5 47.5,49.5C 47.5,37.1667 47.5,24.8333 47.5,12.5C 36.8333,12.5 26.1667,12.5 15.5,12.5C 15.5,24.8333 15.5,37.1667 15.5,49.5C 14.5046,37.011 14.1713,24.3443 14.5,11.5 Z"/></g>
<g><path style="opacity:1" fill="#000000" d="M 47.5,49.5 C 36.8333,49.5 26.1667,49.5 15.5,49.5C 15.5,37.1667 15.5,24.8333 15.5,12.5C 26.1667,12.5 36.8333,12.5 47.5,12.5C 47.5,24.8333 47.5,37.1667 47.5,49.5 Z"/></g>
<g><path style="opacity:1" fill="#808080" d="M 14.5,11.5 C 14.1713,24.3443 14.5046,37.011 15.5,49.5C 26.1667,49.5 36.8333,49.5 47.5,49.5C 47.8333,49.5 48.1667,49.5 48.5,49.5C 37.012,50.4949 25.3453,50.8283 13.5,50.5C 13.1712,37.3226 13.5045,24.3226 14.5,11.5 Z"/></g>
<g><path style="opacity:1" fill="#707070" d="M 314.5,11.5 C 314.5,11.8333 314.5,12.1667 314.5,12.5C 314.5,24.8333 314.5,37.1667 314.5,49.5C 325.167,49.5 335.833,49.5 346.5,49.5C 347.495,37.011 347.829,24.3443 347.5,11.5C 348.495,24.3226 348.829,37.3226 348.5,50.5C 336.833,50.5 325.167,50.5 313.5,50.5C 313.171,37.3226 313.505,24.3226 314.5,11.5 Z"/></g>
<g><path style="opacity:1" fill="#222222" d="M 314.5,12.5 C 314.5,12.1667 314.5,11.8333 314.5,11.5C 325.5,11.5 336.5,11.5 347.5,11.5C 347.829,24.3443 347.495,37.011 346.5,49.5C 346.5,37.1667 346.5,24.8333 346.5,12.5C 335.833,12.5 325.167,12.5 314.5,12.5 Z"/></g>
<g><path style="opacity:1" fill="#000000" d="M 314.5,12.5 C 325.167,12.5 335.833,12.5 346.5,12.5C 346.5,24.8333 346.5,37.1667 346.5,49.5C 335.833,49.5 325.167,49.5 314.5,49.5C 314.5,37.1667 314.5,24.8333 314.5,12.5 Z"/></g>
<g><path style="opacity:1" fill="#dc9a6e" d="M 521.5,89.5 C 520.5,89.5 519.5,89.5 518.5,89.5C 516.833,89.5 515.167,89.5 513.5,89.5C 496.503,86.8791 479.503,86.8791 462.5,89.5C 462.167,89.5 461.833,89.5 461.5,89.5C 459.167,89.5 456.833,89.5 454.5,89.5C 454.5,88.8333 454.833,88.5 455.5,88.5C 473.097,86.4899 490.763,85.9899 508.5,87C 513.127,87.05 517.46,87.8833 521.5,89.5 Z"/></g>
<g><path style="opacity:1" fill="#fef2df" d="M 531.5,91.5 C 527.96,91.2474 524.627,90.5808 521.5,89.5C 517.46,87.8833 513.127,87.05 508.5,87C 490.763,85.9899 473.097,86.4899 455.5,88.5C 455.918,87.7784 456.584,87.2784 457.5,87C 467.969,85.5405 478.469,84.3738 489,83.5C 499.694,84.9752 510.527,86.1419 521.5,87C 525.11,88.3822 528.444,89.8822 531.5,91.5 Z"/></g>
<g><path style="opacity:1" fill="#bf5915" d="M 513.5,89.5 C 496.503,88.2913 479.503,88.2913 462.5,89.5C 479.503,86.8791 496.503,86.8791 513.5,89.5 Z"/></g>
<g><path style="opacity:1" fill="#d85802" d="M 513.5,89.5 C 515.167,89.5 516.833,89.5 518.5,89.5C 527.96,92.2457 537.293,95.579 546.5,99.5C 547.959,99.4326 549.292,99.7659 550.5,100.5C 552.582,102.769 554.582,105.269 556.5,108C 558.247,108.352 559.914,108.852 561.5,109.5C 562.167,109.833 562.833,110.167 563.5,110.5C 564.419,113.089 566.086,115.089 568.5,116.5C 568.338,118.527 568.505,120.527 569,122.5C 571.287,125.072 572.453,128.072 572.5,131.5C 572.636,136.946 571.969,142.28 570.5,147.5C 573.388,147.78 574.888,146.447 575,143.5C 575.333,143.833 575.667,144.167 576,144.5C 576.333,190.167 576.667,235.833 577,281.5C 577.377,282.942 578.21,283.942 579.5,284.5C 581.216,286.025 583.216,287.025 585.5,287.5C 589.639,288.563 593.972,289.23 598.5,289.5C 599.102,299.76 598.436,309.76 596.5,319.5C 595.791,320.404 594.791,320.737 593.5,320.5C 584.365,322.514 575.032,323.014 565.5,322C 559.252,319.586 552.919,317.419 546.5,315.5C 546.649,314.448 546.483,313.448 546,312.5C 541.831,309.547 538.664,305.88 536.5,301.5C 535.793,298.214 535.46,294.881 535.5,291.5C 533.901,291.232 532.568,291.566 531.5,292.5C 530.272,293.306 529.272,294.306 528.5,295.5C 523.525,297.667 519.192,300.834 515.5,305C 513.203,305.018 510.869,304.851 508.5,304.5C 508.105,309.729 505.439,313.396 500.5,315.5C 497.557,316.244 494.557,316.744 491.5,317C 488.542,319.312 485.209,320.812 481.5,321.5C 468.419,324.274 455.085,325.274 441.5,324.5C 441.389,323.883 441.056,323.383 440.5,323C 433.854,320.79 427.02,318.956 420,317.5C 416.283,314.228 412.116,311.895 407.5,310.5C 401.48,301.944 395.98,292.944 391,283.5C 387.392,267.286 387.725,251.286 392,235.5C 394.875,232.458 396.208,228.791 396,224.5C 399.155,220.52 401.655,216.186 403.5,211.5C 403.833,211.5 404.167,211.5 404.5,211.5C 405.552,211.649 406.552,211.483 407.5,211C 411.076,208.242 414.409,205.409 417.5,202.5C 424.212,202.071 430.545,200.571 436.5,198C 438.747,196.723 440.747,195.223 442.5,193.5C 447.468,192.836 452.468,192.336 457.5,192C 460.286,190.499 462.953,188.999 465.5,187.5C 479.529,186.33 493.529,184.83 507.5,183C 510.254,180.743 513.421,179.243 517,178.5C 518.31,177.87 519.144,176.87 519.5,175.5C 523.02,174.647 525.687,172.647 527.5,169.5C 528.496,169.586 529.329,169.252 530,168.5C 533.971,162.004 534.471,155.337 531.5,148.5C 530.434,146.299 529.767,143.965 529.5,141.5C 529.649,140.448 529.483,139.448 529,138.5C 526.923,136.924 525.423,134.924 524.5,132.5C 520.571,132.372 517.905,130.539 516.5,127C 512.748,126.76 509.081,126.26 505.5,125.5C 505.389,124.883 505.056,124.383 504.5,124C 489.133,122.375 474.133,123.708 459.5,128C 458.695,129.113 458.028,130.279 457.5,131.5C 456.232,133.047 454.565,134.047 452.5,134.5C 451.078,134.709 449.745,135.209 448.5,136C 441.925,142.759 438.591,150.926 438.5,160.5C 426.18,161.666 413.847,161.833 401.5,161C 397.721,160.78 396.054,158.78 396.5,155C 398.106,146.804 399.772,138.638 401.5,130.5C 403.204,127.744 404.537,124.744 405.5,121.5C 407.543,120.421 408.876,118.754 409.5,116.5C 409.5,115.833 409.833,115.5 410.5,115.5C 412.833,113.833 414.833,111.833 416.5,109.5C 416.833,108.5 417.5,107.833 418.5,107.5C 420.948,105.716 423.615,104.382 426.5,103.5C 433.326,99.9214 440.326,96.5881 447.5,93.5C 452.39,92.4397 457.057,91.1064 461.5,89.5C 461.833,89.5 462.167,89.5 462.5,89.5C 479.503,88.2913 496.503,88.2913 513.5,89.5 Z"/></g>
<g><path style="opacity:1" fill="#c16929" d="M 518.5,89.5 C 519.5,89.5 520.5,89.5 521.5,89.5C 524.627,90.5808 527.96,91.2474 531.5,91.5C 535.013,93.8946 539.013,95.3946 543.5,96C 544.71,97.0391 545.71,98.2058 546.5,99.5C 537.293,95.579 527.96,92.2457 518.5,89.5 Z"/></g>
<g><path style="opacity:1" fill="#d99c70" d="M 444.5,92.5 C 441.368,95.1101 437.701,96.7767 433.5,97.5C 436.709,95.0659 440.376,93.3992 444.5,92.5 Z"/></g>
<g><path style="opacity:1" fill="#c06629" d="M 454.5,89.5 C 456.833,89.5 459.167,89.5 461.5,89.5C 457.057,91.1064 452.39,92.4397 447.5,93.5C 440.326,96.5881 433.326,99.9214 426.5,103.5C 427.789,102.363 428.789,101.03 429.5,99.5C 430.514,98.3263 431.847,97.6596 433.5,97.5C 437.701,96.7767 441.368,95.1101 444.5,92.5C 448.083,91.9927 451.417,90.9927 454.5,89.5 Z"/></g>
<g><path style="opacity:1" fill="#040404" d="M 125.5,115.5 C 125.166,118.491 126.166,120.824 128.5,122.5C 146.297,171.655 164.63,220.655 183.5,269.5C 184.192,268.975 184.692,268.308 185,267.5C 187.353,258.94 190.186,250.607 193.5,242.5C 195.213,241.365 195.88,239.698 195.5,237.5C 197.34,232.647 199.007,227.647 200.5,222.5C 201.906,222.027 202.573,221.027 202.5,219.5C 216.531,179.096 230.864,138.763 245.5,98.5C 256.814,97.5012 268.147,97.1678 279.5,97.5C 275.172,110.152 270.838,122.818 266.5,135.5C 264.896,136.287 264.229,137.62 264.5,139.5C 262.595,143.215 261.262,147.215 260.5,151.5C 258.896,152.287 258.229,153.62 258.5,155.5C 257.043,159.443 255.71,163.443 254.5,167.5C 252.896,168.287 252.229,169.62 252.5,171.5C 240.897,200.98 229.897,230.646 219.5,260.5C 217.935,262.509 216.935,264.843 216.5,267.5C 215.359,271.591 214.025,275.591 212.5,279.5C 210.935,281.509 209.935,283.843 209.5,286.5C 205.503,297.142 201.503,307.808 197.5,318.5C 187.606,319.818 177.773,319.818 168,318.5C 151.974,274.248 135.474,230.248 118.5,186.5C 117.679,182.873 116.346,179.54 114.5,176.5C 114.5,176.167 114.5,175.833 114.5,175.5C 114.771,173.62 114.104,172.287 112.5,171.5C 112.233,169.035 111.566,166.701 110.5,164.5C 110.34,162.847 109.674,161.514 108.5,160.5C 106.373,152.924 103.707,145.591 100.5,138.5C 100.065,135.843 99.0652,133.509 97.5,131.5C 96.3024,128.574 95.3024,125.574 94.5,122.5C 93.7333,118.851 92.3999,115.518 90.5,112.5C 90.0293,110.421 89.3627,108.421 88.5,106.5C 88.0652,103.843 87.0652,101.509 85.5,99.5C 96.4507,97.5223 107.784,96.8556 119.5,97.5C 121.373,103.517 123.373,109.517 125.5,115.5 Z"/></g>
<g><path style="opacity:1" fill="#000000" d="M 314.5,98.5 C 325.167,98.5 335.833,98.5 346.5,98.5C 346.5,171.833 346.5,245.167 346.5,318.5C 335.833,318.5 325.167,318.5 314.5,318.5C 314.5,245.167 314.5,171.833 314.5,98.5 Z"/></g>
<g><path style="opacity:1" fill="#1d1d1d" d="M 314.5,98.5 C 314.5,98.1667 314.5,97.8333 314.5,97.5C 325.5,97.5 336.5,97.5 347.5,97.5C 347.5,171.5 347.5,245.5 347.5,319.5C 336.321,319.828 325.321,319.495 314.5,318.5C 325.167,318.5 335.833,318.5 346.5,318.5C 346.5,245.167 346.5,171.833 346.5,98.5C 335.833,98.5 325.167,98.5 314.5,98.5 Z"/></g>
<g><path style="opacity:1" fill="#282828" d="M 14.5,97.5 C 25.8333,97.5 37.1667,97.5 48.5,97.5C 48.5,171.5 48.5,245.5 48.5,319.5C 37.1667,319.5 25.8333,319.5 14.5,319.5C 14.5,245.5 14.5,171.5 14.5,97.5 Z"/></g>
<g><path style="opacity:1" fill="#000000" d="M 15.5,98.5 C 26.1667,98.5 36.8333,98.5 47.5,98.5C 47.5,171.833 47.5,245.167 47.5,318.5C 36.8333,318.5 26.1667,318.5 15.5,318.5C 15.5,245.167 15.5,171.833 15.5,98.5 Z"/></g>
<g><path style="opacity:1" fill="#fcefd8" d="M 531.5,91.5 C 538.492,92.4285 545.492,93.5952 552.5,95C 555.277,97.7558 557.61,100.922 559.5,104.5C 566.272,107.942 570.938,113.275 573.5,120.5C 572.391,120.443 571.391,120.11 570.5,119.5C 570.573,117.973 569.906,116.973 568.5,116.5C 567.581,113.911 565.914,111.911 563.5,110.5C 562.833,110.167 562.167,109.833 561.5,109.5C 558.8,105.48 555.133,102.48 550.5,100.5C 549.292,99.7659 547.959,99.4326 546.5,99.5C 545.71,98.2058 544.71,97.0391 543.5,96C 539.013,95.3946 535.013,93.8946 531.5,91.5 Z"/></g>
<g><path style="opacity:1" fill="#a7a7a7" d="M 85.5,99.5 C 87.0652,101.509 88.0652,103.843 88.5,106.5C 86.1663,104.824 85.1663,102.491 85.5,99.5 Z"/></g>
<g><path style="opacity:1" fill="#d19267" d="M 429.5,99.5 C 428.789,101.03 427.789,102.363 426.5,103.5C 423.615,104.382 420.948,105.716 418.5,107.5C 421.041,103.293 424.708,100.627 429.5,99.5 Z"/></g>
<g><path style="opacity:1" fill="#e1e1e1" d="M 347.5,97.5 C 336.5,97.5 325.5,97.5 314.5,97.5C 313.501,171.331 313.167,245.331 313.5,319.5C 312.501,245.335 312.167,171.002 312.5,96.5C 324.345,96.1717 336.012,96.5051 347.5,97.5 Z"/></g>
<g><path style="opacity:1" fill="#c46c31" d="M 550.5,100.5 C 555.133,102.48 558.8,105.48 561.5,109.5C 559.914,108.852 558.247,108.352 556.5,108C 554.582,105.269 552.582,102.769 550.5,100.5 Z"/></g>
<g><path style="opacity:1" fill="#d79c6e" d="M 416.5,109.5 C 414.833,111.833 412.833,113.833 410.5,115.5C 411.5,112.5 413.5,110.5 416.5,109.5 Z"/></g>
<g><path style="opacity:1" fill="#dda373" d="M 563.5,110.5 C 565.914,111.911 567.581,113.911 568.5,116.5C 566.086,115.089 564.419,113.089 563.5,110.5 Z"/></g>
<g><path style="opacity:1" fill="#999999" d="M 90.5,112.5 C 92.3999,115.518 93.7333,118.851 94.5,122.5C 92.1034,119.691 90.7701,116.358 90.5,112.5 Z"/></g>
<g><path style="opacity:1" fill="#dba176" d="M 409.5,116.5 C 408.876,118.754 407.543,120.421 405.5,121.5C 406.136,119.205 407.469,117.539 409.5,116.5 Z"/></g>
<g><path style="opacity:1" fill="#555555" d="M 125.5,115.5 C 127.065,117.509 128.065,119.843 128.5,122.5C 126.166,120.824 125.166,118.491 125.5,115.5 Z"/></g>
<g><path style="opacity:1" fill="#c26e31" d="M 568.5,116.5 C 569.906,116.973 570.573,117.973 570.5,119.5C 572.186,123.576 573.853,127.576 575.5,131.5C 577.04,133.838 577.706,136.505 577.5,139.5C 577.5,140.5 577.5,141.5 577.5,142.5C 576.281,138.606 574.614,134.939 572.5,131.5C 572.453,128.072 571.287,125.072 569,122.5C 568.505,120.527 568.338,118.527 568.5,116.5 Z"/></g>
<g><path style="opacity:1" fill="#c45d14" d="M 505.5,125.5 C 495.88,124.385 486.214,124.218 476.5,125C 475.263,125.232 474.263,125.732 473.5,126.5C 470.627,126.802 467.961,127.469 465.5,128.5C 463.03,128.654 461.03,129.654 459.5,131.5C 458.833,131.5 458.167,131.5 457.5,131.5C 458.028,130.279 458.695,129.113 459.5,128C 474.133,123.708 489.133,122.375 504.5,124C 505.056,124.383 505.389,124.883 505.5,125.5 Z"/></g>
<g><path style="opacity:1" fill="#f0c39d" d="M 570.5,119.5 C 571.391,120.11 572.391,120.443 573.5,120.5C 574.167,124.167 574.833,127.833 575.5,131.5C 573.853,127.576 572.186,123.576 570.5,119.5 Z"/></g>
<g><path style="opacity:1" fill="#fbdfbd" d="M 478.5,127.5 C 484.645,126.51 490.978,126.177 497.5,126.5C 501.04,126.753 504.373,127.419 507.5,128.5C 497.854,127.713 488.188,127.38 478.5,127.5 Z"/></g>
<g><path style="opacity:1" fill="#c46526" d="M 505.5,125.5 C 509.081,126.26 512.748,126.76 516.5,127C 517.905,130.539 520.571,132.372 524.5,132.5C 525.423,134.924 526.923,136.924 529,138.5C 529.483,139.448 529.649,140.448 529.5,141.5C 528.5,140.833 527.5,140.167 526.5,139.5C 525.833,136.833 524.167,135.167 521.5,134.5C 517.37,131.44 512.704,129.44 507.5,128.5C 504.373,127.419 501.04,126.753 497.5,126.5C 489.648,125.285 481.648,125.285 473.5,126.5C 474.263,125.732 475.263,125.232 476.5,125C 486.214,124.218 495.88,124.385 505.5,125.5 Z"/></g>
<g><path style="opacity:1" fill="#d18859" d="M 405.5,121.5 C 404.537,124.744 403.204,127.744 401.5,130.5C 401.502,126.835 402.835,123.835 405.5,121.5 Z"/></g>
<g><path style="opacity:1" fill="#ebbd93" d="M 497.5,126.5 C 490.978,126.177 484.645,126.51 478.5,127.5C 474.19,128.08 469.857,128.414 465.5,128.5C 467.961,127.469 470.627,126.802 473.5,126.5C 481.648,125.285 489.648,125.285 497.5,126.5 Z"/></g>
<g><path style="opacity:1" fill="#fdf3de" d="M 478.5,127.5 C 488.188,127.38 497.854,127.713 507.5,128.5C 512.704,129.44 517.37,131.44 521.5,134.5C 522.833,136.5 524.5,138.167 526.5,139.5C 527.5,140.167 528.5,140.833 529.5,141.5C 529.767,143.965 530.434,146.299 531.5,148.5C 532.545,156.134 531.212,163.134 527.5,169.5C 525.938,169.733 524.605,170.4 523.5,171.5C 524.64,168.975 525.307,166.308 525.5,163.5C 526.833,163.5 528.167,163.5 529.5,163.5C 531.144,157.718 530.81,152.051 528.5,146.5C 524.986,145.486 523.152,143.152 523,139.5C 519.186,137.015 515.686,134.182 512.5,131C 494.786,127.795 477.12,127.962 459.5,131.5C 461.03,129.654 463.03,128.654 465.5,128.5C 469.857,128.414 474.19,128.08 478.5,127.5 Z"/></g>
<g><path style="opacity:1" fill="#acacac" d="M 97.5,131.5 C 99.0652,133.509 100.065,135.843 100.5,138.5C 98.1663,136.824 97.1663,134.491 97.5,131.5 Z"/></g>
<g><path style="opacity:1" fill="#e3ad81" d="M 521.5,134.5 C 524.167,135.167 525.833,136.833 526.5,139.5C 524.5,138.167 522.833,136.5 521.5,134.5 Z"/></g>
<g><path style="opacity:1" fill="#777777" d="M 266.5,135.5 C 266.34,137.153 265.674,138.486 264.5,139.5C 264.229,137.62 264.896,136.287 266.5,135.5 Z"/></g>
<g><path style="opacity:1" fill="#777777" d="M 260.5,151.5 C 260.34,153.153 259.674,154.486 258.5,155.5C 258.229,153.62 258.896,152.287 260.5,151.5 Z"/></g>
<g><path style="opacity:1" fill="#bf793d" d="M 577.5,143.5 C 578.167,187.5 578.833,231.5 579.5,275.5C 579.398,280.066 581.398,283.232 585.5,285C 590.823,285.499 596.156,285.666 601.5,285.5C 601.5,297.167 601.5,308.833 601.5,320.5C 598.904,321.265 596.237,321.599 593.5,321.5C 593.5,321.167 593.5,320.833 593.5,320.5C 594.791,320.737 595.791,320.404 596.5,319.5C 597.822,319.67 598.989,319.337 600,318.5C 600.667,308.5 600.667,298.5 600,288.5C 595.263,287.531 590.43,287.197 585.5,287.5C 583.216,287.025 581.216,286.025 579.5,284.5C 579.322,281.784 578.822,279.117 578,276.5C 577.5,232.168 577.333,187.835 577.5,143.5 Z"/></g>
<g><path style="opacity:1" fill="#c06425" d="M 401.5,130.5 C 399.772,138.638 398.106,146.804 396.5,155C 396.054,158.78 397.721,160.78 401.5,161C 413.847,161.833 426.18,161.666 438.5,160.5C 438.591,150.926 441.925,142.759 448.5,136C 449.745,135.209 451.078,134.709 452.5,134.5C 449.198,137.974 446.032,141.641 443,145.5C 441.515,151.076 440.682,156.743 440.5,162.5C 425.5,162.5 410.5,162.5 395.5,162.5C 395.5,158.833 395.5,155.167 395.5,151.5C 395.35,146.7 396.016,142.033 397.5,137.5C 398.461,134.945 399.794,132.612 401.5,130.5 Z"/></g>
<g><path style="opacity:1" fill="#707070" d="M 108.5,160.5 C 109.674,161.514 110.34,162.847 110.5,164.5C 108.896,163.713 108.229,162.38 108.5,160.5 Z"/></g>
<g><path style="opacity:1" fill="#fdeacf" d="M 457.5,131.5 C 458.167,131.5 458.833,131.5 459.5,131.5C 458.092,135.24 455.425,137.573 451.5,138.5C 448.808,142.028 446.308,145.694 444,149.5C 443.067,154.359 442.234,159.192 441.5,164C 425.5,164.667 409.5,164.667 393.5,164C 392.363,158.918 392.196,153.751 393,148.5C 394.087,145.309 394.92,141.975 395.5,138.5C 396.183,138.137 396.85,137.804 397.5,137.5C 396.016,142.033 395.35,146.7 395.5,151.5C 394.517,155.298 394.183,159.298 394.5,163.5C 410.009,163.83 425.342,163.496 440.5,162.5C 440.682,156.743 441.515,151.076 443,145.5C 446.032,141.641 449.198,137.974 452.5,134.5C 454.565,134.047 456.232,133.047 457.5,131.5 Z"/></g>
<g><path style="opacity:1" fill="#e29e6b" d="M 395.5,151.5 C 395.5,155.167 395.5,158.833 395.5,162.5C 410.5,162.5 425.5,162.5 440.5,162.5C 425.342,163.496 410.009,163.83 394.5,163.5C 394.183,159.298 394.517,155.298 395.5,151.5 Z"/></g>
<g><path style="opacity:1" fill="#c65607" d="M 572.5,131.5 C 574.614,134.939 576.281,138.606 577.5,142.5C 577.5,142.833 577.5,143.167 577.5,143.5C 577.333,187.835 577.5,232.168 578,276.5C 578.822,279.117 579.322,281.784 579.5,284.5C 578.21,283.942 577.377,282.942 577,281.5C 576.667,235.833 576.333,190.167 576,144.5C 575.667,144.167 575.333,143.833 575,143.5C 574.888,146.447 573.388,147.78 570.5,147.5C 571.969,142.28 572.636,136.946 572.5,131.5 Z"/></g>
<g><path style="opacity:1" fill="#cd8249" d="M 531.5,148.5 C 534.471,155.337 533.971,162.004 530,168.5C 529.329,169.252 528.496,169.586 527.5,169.5C 531.212,163.134 532.545,156.134 531.5,148.5 Z"/></g>
<g><path style="opacity:1" fill="#fed8ae" d="M 577.5,139.5 C 578.268,140.263 578.768,141.263 579,142.5C 579.5,186.832 579.667,231.165 579.5,275.5C 578.833,231.5 578.167,187.5 577.5,143.5C 577.5,143.167 577.5,142.833 577.5,142.5C 577.5,141.5 577.5,140.5 577.5,139.5 Z"/></g>
<g><path style="opacity:1" fill="#767676" d="M 254.5,167.5 C 254.34,169.153 253.674,170.486 252.5,171.5C 252.229,169.62 252.896,168.287 254.5,167.5 Z"/></g>
<g><path style="opacity:1" fill="#5f5f5f" d="M 112.5,171.5 C 114.104,172.287 114.771,173.62 114.5,175.5C 113.326,174.486 112.66,173.153 112.5,171.5 Z"/></g>
<g><path style="opacity:1" fill="#df9369" d="M 527.5,169.5 C 525.687,172.647 523.02,174.647 519.5,175.5C 518.833,175.5 518.167,175.5 517.5,175.5C 519.5,174.167 521.5,172.833 523.5,171.5C 524.605,170.4 525.938,169.733 527.5,169.5 Z"/></g>
<g><path style="opacity:1" fill="#bfbfbf" d="M 114.5,176.5 C 116.346,179.54 117.679,182.873 118.5,186.5C 114.605,184.035 113.272,180.701 114.5,176.5 Z"/></g>
<g><path style="opacity:1" fill="#db9664" d="M 517.5,175.5 C 512.79,178.852 507.457,180.852 501.5,181.5C 506.681,179.325 512.014,177.325 517.5,175.5 Z"/></g>
<g><path style="opacity:1" fill="#c36728" d="M 517.5,175.5 C 518.167,175.5 518.833,175.5 519.5,175.5C 519.144,176.87 518.31,177.87 517,178.5C 513.421,179.243 510.254,180.743 507.5,183C 493.529,184.83 479.529,186.33 465.5,187.5C 465.5,187.167 465.5,186.833 465.5,186.5C 470.616,185.194 475.949,184.527 481.5,184.5C 488.112,183.173 494.778,182.173 501.5,181.5C 507.457,180.852 512.79,178.852 517.5,175.5 Z"/></g>
<g><path style="opacity:1" fill="#fdeed7" d="M 523.5,171.5 C 521.5,172.833 519.5,174.167 517.5,175.5C 512.014,177.325 506.681,179.325 501.5,181.5C 494.778,182.173 488.112,183.173 481.5,184.5C 481.5,183.5 481.5,182.5 481.5,181.5C 489.481,180.288 497.481,179.122 505.5,178C 510.848,174.161 516.848,171.994 523.5,171.5 Z"/></g>
<g><path style="opacity:1" fill="#fae3c8" d="M 465.5,186.5 C 465.5,186.833 465.5,187.167 465.5,187.5C 454.201,188.26 443.535,190.927 433.5,195.5C 431.435,195.517 429.435,195.85 427.5,196.5C 426.391,196.557 425.391,196.89 424.5,197.5C 424.47,196.503 424.97,195.836 426,195.5C 431.395,193.309 436.895,191.142 442.5,189C 450.137,187.837 457.804,187.003 465.5,186.5 Z"/></g>
<g><path style="opacity:1" fill="#c46829" d="M 465.5,187.5 C 462.953,188.999 460.286,190.499 457.5,192C 452.468,192.336 447.468,192.836 442.5,193.5C 439.598,194.578 436.598,195.244 433.5,195.5C 443.535,190.927 454.201,188.26 465.5,187.5 Z"/></g>
<g><path style="opacity:1" fill="#c85f11" d="M 442.5,193.5 C 440.747,195.223 438.747,196.723 436.5,198C 430.545,200.571 424.212,202.071 417.5,202.5C 417.5,202.167 417.5,201.833 417.5,201.5C 421.794,201.631 425.127,199.964 427.5,196.5C 429.435,195.85 431.435,195.517 433.5,195.5C 436.598,195.244 439.598,194.578 442.5,193.5 Z"/></g>
<g><path style="opacity:1" fill="#c5874f" d="M 427.5,196.5 C 425.127,199.964 421.794,201.631 417.5,201.5C 417.5,201.167 417.5,200.833 417.5,200.5C 419.97,199.763 422.304,198.763 424.5,197.5C 425.391,196.89 426.391,196.557 427.5,196.5 Z"/></g>
<g><path style="opacity:1" fill="#fbe9d2" d="M 417.5,200.5 C 417.5,200.833 417.5,201.167 417.5,201.5C 417.5,201.833 417.5,202.167 417.5,202.5C 415.518,202.995 413.518,203.495 411.5,204C 408.261,205.736 405.927,208.236 404.5,211.5C 404.167,211.5 403.833,211.5 403.5,211.5C 402.5,211.833 401.833,212.5 401.5,213.5C 399.469,214.539 398.136,216.205 397.5,218.5C 391.59,225.703 388.09,234.037 387,243.5C 386.5,252.16 386.334,260.827 386.5,269.5C 386.167,269.5 385.833,269.5 385.5,269.5C 382.703,253.29 384.703,237.79 391.5,223C 393.707,218.989 396.04,215.155 398.5,211.5C 401.05,211.439 402.55,210.106 403,207.5C 405.657,206.427 407.823,204.76 409.5,202.5C 412.021,201.215 414.687,200.548 417.5,200.5 Z"/></g>
<g><path style="opacity:1" fill="#c3733b" d="M 417.5,202.5 C 414.409,205.409 411.076,208.242 407.5,211C 406.552,211.483 405.552,211.649 404.5,211.5C 405.927,208.236 408.261,205.736 411.5,204C 413.518,203.495 415.518,202.995 417.5,202.5 Z"/></g>
<g><path style="opacity:1" fill="#f5c7a0" d="M 519.5,211.5 C 515.32,214.099 510.654,215.432 505.5,215.5C 505.5,215.167 505.5,214.833 505.5,214.5C 510.231,213.712 514.897,212.712 519.5,211.5 Z"/></g>
<g><path style="opacity:1" fill="#bd662c" d="M 505.5,214.5 C 505.5,214.833 505.5,215.167 505.5,215.5C 502.873,216.092 500.206,216.425 497.5,216.5C 492.278,217.764 486.945,218.431 481.5,218.5C 482.152,217.275 483.319,216.608 485,216.5C 491.807,215.503 498.64,214.836 505.5,214.5 Z"/></g>
<g><path style="opacity:1" fill="#fdf5e1" d="M 531.5,241.5 C 530.85,243.435 530.517,245.435 530.5,247.5C 530.5,247.833 530.5,248.167 530.5,248.5C 526.77,258.944 520.77,267.944 512.5,275.5C 511.508,275.328 510.842,275.662 510.5,276.5C 505.468,278.678 500.801,281.345 496.5,284.5C 495.833,284.5 495.167,284.5 494.5,284.5C 493.167,284.5 491.833,284.5 490.5,284.5C 493.296,280.344 497.296,278.178 502.5,278C 501.549,277.282 501.383,276.449 502,275.5C 504.398,274.102 506.065,272.102 507,269.5C 507.414,269.957 507.914,270.291 508.5,270.5C 515.454,268.716 520.454,264.549 523.5,258C 525.363,253.817 527.197,249.65 529,245.5C 529.229,234.452 529.229,223.452 529,212.5C 528.667,211.833 528.333,211.167 528,210.5C 525.417,211.874 522.917,213.374 520.5,215C 513.5,216 506.5,217 499.5,218C 498.088,219.306 496.421,220.14 494.5,220.5C 483.404,220.783 472.404,222.117 461.5,224.5C 462.167,223.833 462.833,223.167 463.5,222.5C 467.79,222.802 471.79,222.136 475.5,220.5C 475.833,220.5 476.167,220.5 476.5,220.5C 483.972,220.938 490.972,219.605 497.5,216.5C 500.206,216.425 502.873,216.092 505.5,215.5C 510.654,215.432 515.32,214.099 519.5,211.5C 523.501,210.5 527.501,209.5 531.5,208.5C 531.5,219.5 531.5,230.5 531.5,241.5 Z"/></g>
<g><path style="opacity:1" fill="#dca87f" d="M 401.5,213.5 C 400.876,215.754 399.543,217.421 397.5,218.5C 398.136,216.205 399.469,214.539 401.5,213.5 Z"/></g>
<g><path style="opacity:1" fill="#dea170" d="M 529.5,206.5 C 530.5,206.5 531.5,206.5 532.5,206.5C 532.828,218.345 532.495,230.012 531.5,241.5C 531.5,230.5 531.5,219.5 531.5,208.5C 527.501,209.5 523.501,210.5 519.5,211.5C 522.784,209.836 526.117,208.169 529.5,206.5 Z"/></g>
<g><path style="opacity:1" fill="#f1cea6" d="M 497.5,216.5 C 490.972,219.605 483.972,220.938 476.5,220.5C 478.167,219.833 479.833,219.167 481.5,218.5C 486.945,218.431 492.278,217.764 497.5,216.5 Z"/></g>
<g><path style="opacity:1" fill="#fdfdfc" d="M 490.5,284.5 C 480.845,285.366 471.178,285.533 461.5,285C 457.219,282.463 452.552,281.13 447.5,281C 445.296,278.406 442.63,276.572 439.5,275.5C 438.263,274.035 437.263,272.368 436.5,270.5C 434.484,263.251 434.15,255.918 435.5,248.5C 436.955,243.675 438.955,239.009 441.5,234.5C 441.414,233.504 441.748,232.671 442.5,232C 445.275,231.035 447.608,229.535 449.5,227.5C 453.485,226.512 457.485,225.512 461.5,224.5C 472.404,222.117 483.404,220.783 494.5,220.5C 496.421,220.14 498.088,219.306 499.5,218C 506.5,217 513.5,216 520.5,215C 522.917,213.374 525.417,211.874 528,210.5C 528.333,211.167 528.667,211.833 529,212.5C 529.229,223.452 529.229,234.452 529,245.5C 527.197,249.65 525.363,253.817 523.5,258C 520.454,264.549 515.454,268.716 508.5,270.5C 507.914,270.291 507.414,269.957 507,269.5C 506.065,272.102 504.398,274.102 502,275.5C 501.383,276.449 501.549,277.282 502.5,278C 497.296,278.178 493.296,280.344 490.5,284.5 Z"/></g>
<g><path style="opacity:1" fill="#b7662a" d="M 481.5,218.5 C 479.833,219.167 478.167,219.833 476.5,220.5C 476.167,220.5 475.833,220.5 475.5,220.5C 472.098,220.342 468.764,220.676 465.5,221.5C 466.589,219.883 468.256,219.05 470.5,219C 474.152,218.501 477.818,218.335 481.5,218.5 Z"/></g>
<g><path style="opacity:1" fill="#c36725" d="M 533.5,244.5 C 532.272,245.306 531.272,246.306 530.5,247.5C 530.517,245.435 530.85,243.435 531.5,241.5C 532.495,230.012 532.828,218.345 532.5,206.5C 531.5,206.5 530.5,206.5 529.5,206.5C 530.077,204.348 531.244,204.015 533,205.5C 533.5,218.496 533.667,231.496 533.5,244.5 Z"/></g>
<g><path style="opacity:1" fill="#838383" d="M 202.5,219.5 C 202.573,221.027 201.906,222.027 200.5,222.5C 200.427,220.973 201.094,219.973 202.5,219.5 Z"/></g>
<g><path style="opacity:1" fill="#edc095" d="M 475.5,220.5 C 471.79,222.136 467.79,222.802 463.5,222.5C 463.5,222.167 463.5,221.833 463.5,221.5C 464.167,221.5 464.833,221.5 465.5,221.5C 468.764,220.676 472.098,220.342 475.5,220.5 Z"/></g>
<g><path style="opacity:1" fill="#c4611f" d="M 463.5,221.5 C 463.5,221.833 463.5,222.167 463.5,222.5C 458.793,223.624 454.126,224.957 449.5,226.5C 452.98,221.972 457.646,220.305 463.5,221.5 Z"/></g>
<g><path style="opacity:1" fill="#f0cba0" d="M 463.5,222.5 C 462.833,223.167 462.167,223.833 461.5,224.5C 457.485,225.512 453.485,226.512 449.5,227.5C 449.5,227.167 449.5,226.833 449.5,226.5C 454.126,224.957 458.793,223.624 463.5,222.5 Z"/></g>
<g><path style="opacity:1" fill="#c7631b" d="M 449.5,226.5 C 449.5,226.833 449.5,227.167 449.5,227.5C 447.608,229.535 445.275,231.035 442.5,232C 441.748,232.671 441.414,233.504 441.5,234.5C 438.083,236.592 435.75,239.592 434.5,243.5C 434.167,243.5 433.833,243.5 433.5,243.5C 435.201,240.075 436.367,236.409 437,232.5C 438.734,230.549 440.901,229.549 443.5,229.5C 443.5,228.5 443.5,227.5 443.5,226.5C 445.5,226.5 447.5,226.5 449.5,226.5 Z"/></g>
<g><path style="opacity:1" fill="#c16729" d="M 403.5,211.5 C 401.655,216.186 399.155,220.52 396,224.5C 396.208,228.791 394.875,232.458 392,235.5C 387.725,251.286 387.392,267.286 391,283.5C 395.98,292.944 401.48,301.944 407.5,310.5C 403.854,308.518 400.854,305.851 398.5,302.5C 397.89,300.566 396.89,298.899 395.5,297.5C 395.245,295.033 394.245,293.033 392.5,291.5C 391.203,289.629 390.203,287.629 389.5,285.5C 388.913,279.963 387.913,274.63 386.5,269.5C 386.334,260.827 386.5,252.16 387,243.5C 388.09,234.037 391.59,225.703 397.5,218.5C 399.543,217.421 400.876,215.754 401.5,213.5C 401.833,212.5 402.5,211.833 403.5,211.5 Z"/></g>
<g><path style="opacity:1" fill="#5f5f5f" d="M 195.5,237.5 C 195.88,239.698 195.213,241.365 193.5,242.5C 193.796,240.597 194.463,238.93 195.5,237.5 Z"/></g>
<g><path style="opacity:1" fill="#fce1be" d="M 441.5,234.5 C 438.955,239.009 436.955,243.675 435.5,248.5C 434.15,255.918 434.484,263.251 436.5,270.5C 435.073,268.852 434.24,266.852 434,264.5C 433.325,257.472 433.492,250.472 434.5,243.5C 435.75,239.592 438.083,236.592 441.5,234.5 Z"/></g>
<g><path style="opacity:1" fill="#a4a4a4" d="M 219.5,260.5 C 219.834,263.491 218.834,265.824 216.5,267.5C 216.935,264.843 217.935,262.509 219.5,260.5 Z"/></g>
<g><path style="opacity:1" fill="#c37538" d="M 530.5,248.5 C 529.215,260.761 523.215,269.761 512.5,275.5C 520.77,267.944 526.77,258.944 530.5,248.5 Z"/></g>
<g><path style="opacity:1" fill="#cb5c12" d="M 533.5,244.5 C 533.663,246.857 533.497,249.19 533,251.5C 530.743,255.683 528.743,260.016 527,264.5C 523.833,268.333 520.667,272.167 517.5,276C 516.207,276.49 514.873,276.657 513.5,276.5C 513.714,278.144 513.38,279.644 512.5,281C 508.752,280.78 505.752,282.113 503.5,285C 501.08,285.29 498.746,285.79 496.5,286.5C 496.5,285.833 496.5,285.167 496.5,284.5C 501.969,283.132 506.636,280.465 510.5,276.5C 510.842,275.662 511.508,275.328 512.5,275.5C 523.215,269.761 529.215,260.761 530.5,248.5C 530.5,248.167 530.5,247.833 530.5,247.5C 531.272,246.306 532.272,245.306 533.5,244.5 Z"/></g>
<g><path style="opacity:1" fill="#c67031" d="M 433.5,243.5 C 433.833,243.5 434.167,243.5 434.5,243.5C 433.492,250.472 433.325,257.472 434,264.5C 434.24,266.852 435.073,268.852 436.5,270.5C 437.263,272.368 438.263,274.035 439.5,275.5C 440.833,277.5 442.167,279.5 443.5,281.5C 441.83,281.249 440.33,280.582 439,279.5C 437.081,276.539 435.248,273.539 433.5,270.5C 432.178,261.342 432.178,252.342 433.5,243.5 Z"/></g>
<g><path style="opacity:1" fill="#d3895b" d="M 510.5,276.5 C 506.636,280.465 501.969,283.132 496.5,284.5C 500.801,281.345 505.468,278.678 510.5,276.5 Z"/></g>
<g><path style="opacity:1" fill="#aeaeae" d="M 212.5,279.5 C 212.834,282.491 211.834,284.824 209.5,286.5C 209.935,283.843 210.935,281.509 212.5,279.5 Z"/></g>
<g><path style="opacity:1" fill="#f2c5a2" d="M 386.5,269.5 C 387.913,274.63 388.913,279.963 389.5,285.5C 387.227,280.549 386.227,275.216 386.5,269.5 Z"/></g>
<g><path style="opacity:1" fill="#fef3e1" d="M 439.5,275.5 C 442.63,276.572 445.296,278.406 447.5,281C 452.552,281.13 457.219,282.463 461.5,285C 471.178,285.533 480.845,285.366 490.5,284.5C 489.167,285.167 487.833,285.833 486.5,286.5C 484.052,287.473 481.385,287.806 478.5,287.5C 468.631,288.083 458.965,287.083 449.5,284.5C 447.5,283.5 445.5,282.5 443.5,281.5C 442.167,279.5 440.833,277.5 439.5,275.5 Z"/></g>
<g><path style="opacity:1" fill="#e5b18a" d="M 490.5,284.5 C 491.833,284.5 493.167,284.5 494.5,284.5C 492.162,286.04 489.495,286.706 486.5,286.5C 487.833,285.833 489.167,285.167 490.5,284.5 Z"/></g>
<g><path style="opacity:1" fill="#f0b78e" d="M 449.5,285.5 C 449.5,285.167 449.5,284.833 449.5,284.5C 458.965,287.083 468.631,288.083 478.5,287.5C 468.776,289.145 459.109,288.478 449.5,285.5 Z"/></g>
<g><path style="opacity:1" fill="#fdf2db" d="M 385.5,269.5 C 385.833,269.5 386.167,269.5 386.5,269.5C 386.227,275.216 387.227,280.549 389.5,285.5C 390.203,287.629 391.203,289.629 392.5,291.5C 392.755,293.967 393.755,295.967 395.5,297.5C 396.89,298.899 397.89,300.566 398.5,302.5C 388.524,293.935 384.19,282.935 385.5,269.5 Z"/></g>
<g><path style="opacity:1" fill="#c16d31" d="M 494.5,284.5 C 495.167,284.5 495.833,284.5 496.5,284.5C 496.5,285.167 496.5,285.833 496.5,286.5C 481.582,289.649 466.582,290.149 451.5,288C 450.244,287.583 449.577,286.75 449.5,285.5C 459.109,288.478 468.776,289.145 478.5,287.5C 481.385,287.806 484.052,287.473 486.5,286.5C 489.495,286.706 492.162,286.04 494.5,284.5 Z"/></g>
<g><path style="opacity:1" fill="#d99761" d="M 531.5,292.5 C 532.568,291.566 533.901,291.232 535.5,291.5C 535.46,294.881 535.793,298.214 536.5,301.5C 536.167,301.5 535.833,301.5 535.5,301.5C 535.167,300.833 534.833,300.167 534.5,299.5C 534.821,296.423 533.821,294.09 531.5,292.5 Z"/></g>
<g><path style="opacity:1" fill="#dfa87b" d="M 392.5,291.5 C 394.245,293.033 395.245,295.033 395.5,297.5C 393.755,295.967 392.755,293.967 392.5,291.5 Z"/></g>
<g><path style="opacity:1" fill="#fcedd4" d="M 531.5,292.5 C 533.821,294.09 534.821,296.423 534.5,299.5C 533.518,298.859 532.518,298.193 531.5,297.5C 529.677,299.158 528.01,300.991 526.5,303C 524.192,303.991 521.859,304.824 519.5,305.5C 522.449,302.212 525.449,298.879 528.5,295.5C 529.272,294.306 530.272,293.306 531.5,292.5 Z"/></g>
<g><path style="opacity:1" fill="#c85c11" d="M 585.5,287.5 C 590.43,287.197 595.263,287.531 600,288.5C 600.667,298.5 600.667,308.5 600,318.5C 598.989,319.337 597.822,319.67 596.5,319.5C 598.436,309.76 599.102,299.76 598.5,289.5C 593.972,289.23 589.639,288.563 585.5,287.5 Z"/></g>
<g><path style="opacity:1" fill="#c76320" d="M 528.5,295.5 C 525.449,298.879 522.449,302.212 519.5,305.5C 517.118,306.351 515.118,307.684 513.5,309.5C 510.454,309.725 508.121,311.058 506.5,313.5C 496.251,319.453 485.251,323.453 473.5,325.5C 464.525,326.498 455.525,326.832 446.5,326.5C 444.833,325.833 443.167,325.167 441.5,324.5C 455.085,325.274 468.419,324.274 481.5,321.5C 485.209,320.812 488.542,319.312 491.5,317C 494.557,316.744 497.557,316.244 500.5,315.5C 505.439,313.396 508.105,309.729 508.5,304.5C 510.869,304.851 513.203,305.018 515.5,305C 519.192,300.834 523.525,297.667 528.5,295.5 Z"/></g>
<g><path style="opacity:1" fill="#c48555" d="M 513.5,309.5 C 511.434,311.199 509.1,312.532 506.5,313.5C 508.121,311.058 510.454,309.725 513.5,309.5 Z"/></g>
<g><path style="opacity:1" fill="#fcedd3" d="M 398.5,302.5 C 400.854,305.851 403.854,308.518 407.5,310.5C 411.653,314.075 415.986,317.409 420.5,320.5C 412.632,319.943 406.966,316.109 403.5,309C 399.749,308.418 398.082,306.251 398.5,302.5 Z"/></g>
<g><path style="opacity:1" fill="#faead3" d="M 519.5,305.5 C 518.319,308.025 516.986,310.525 515.5,313C 510.83,314.33 506.83,316.663 503.5,320C 500.5,320.333 497.5,320.667 494.5,321C 491.553,324.014 487.887,325.348 483.5,325C 482.619,326.471 481.286,327.304 479.5,327.5C 468.373,328.984 457.206,329.984 446,330.5C 443.915,328.891 441.749,327.558 439.5,326.5C 441.833,326.5 444.167,326.5 446.5,326.5C 455.525,326.832 464.525,326.498 473.5,325.5C 485.251,323.453 496.251,319.453 506.5,313.5C 509.1,312.532 511.434,311.199 513.5,309.5C 515.118,307.684 517.118,306.351 519.5,305.5 Z"/></g>
<g><path style="opacity:1" fill="#747474" d="M 314.5,97.5 C 314.5,97.8333 314.5,98.1667 314.5,98.5C 314.5,171.833 314.5,245.167 314.5,318.5C 325.321,319.495 336.321,319.828 347.5,319.5C 336.167,320.833 324.833,320.833 313.5,319.5C 313.167,245.331 313.501,171.331 314.5,97.5 Z"/></g>
<g><path style="opacity:1" fill="#c36522" d="M 407.5,310.5 C 412.116,311.895 416.283,314.228 420,317.5C 427.02,318.956 433.854,320.79 440.5,323C 441.056,323.383 441.389,323.883 441.5,324.5C 438.833,324.5 436.167,324.5 433.5,324.5C 429.162,323.515 424.828,322.182 420.5,320.5C 415.986,317.409 411.653,314.075 407.5,310.5 Z"/></g>
<g><path style="opacity:1" fill="#dda77b" d="M 433.5,324.5 C 436.167,324.5 438.833,324.5 441.5,324.5C 443.167,325.167 444.833,325.833 446.5,326.5C 444.167,326.5 441.833,326.5 439.5,326.5C 437.374,325.952 435.374,325.285 433.5,324.5 Z"/></g>
<g><path style="opacity:1" fill="#fef6e8" d="M 573.5,120.5 C 574.751,122.382 575.918,124.382 577,126.5C 577.493,130.968 578.493,135.302 580,139.5C 580.075,185.849 580.741,232.183 582,278.5C 587.631,283.057 593.798,283.723 600.5,280.5C 601.452,278.955 601.785,277.288 601.5,275.5C 603.103,275.312 604.437,275.812 605.5,277C 604.373,278.753 603.373,280.587 602.5,282.5C 602.808,283.308 603.308,283.975 604,284.5C 604.917,296.891 604.584,309.224 603,321.5C 602.167,322.333 601.333,323.167 600.5,324C 597.292,324.403 594.292,325.403 591.5,327C 582.139,327.219 572.806,327.719 563.5,328.5C 562.294,326.896 560.294,325.396 557.5,324C 553.185,323.58 549.185,323.08 545.5,322.5C 546.5,321.833 547.5,321.167 548.5,320.5C 545.88,318.907 543.38,317.907 541,317.5C 537.164,312.833 535.33,307.5 535.5,301.5C 535.833,301.5 536.167,301.5 536.5,301.5C 537.575,307.977 540.908,312.977 546.5,316.5C 547.903,317.931 549.569,319.098 551.5,320C 552.793,320.49 554.127,320.657 555.5,320.5C 557.5,321.5 559.5,322.5 561.5,323.5C 570.841,324.258 580.341,324.925 590,325.5C 593.939,323.772 597.772,322.105 601.5,320.5C 601.5,308.833 601.5,297.167 601.5,285.5C 596.156,285.666 590.823,285.499 585.5,285C 581.398,283.232 579.398,280.066 579.5,275.5C 579.667,231.165 579.5,186.832 579,142.5C 578.768,141.263 578.268,140.263 577.5,139.5C 577.706,136.505 577.04,133.838 575.5,131.5C 574.833,127.833 574.167,124.167 573.5,120.5 Z"/></g>
<g><path style="opacity:1" fill="#f7dec2" d="M 601.5,320.5 C 597.772,322.105 593.939,323.772 590,325.5C 580.341,324.925 570.841,324.258 561.5,323.5C 571.506,323.666 581.506,323.5 591.5,323C 592.416,322.722 593.082,322.222 593.5,321.5C 596.237,321.599 598.904,321.265 601.5,320.5 Z"/></g>
<g><path style="opacity:1" fill="#c2692b" d="M 536.5,301.5 C 538.664,305.88 541.831,309.547 546,312.5C 546.483,313.448 546.649,314.448 546.5,315.5C 552.919,317.419 559.252,319.586 565.5,322C 575.032,323.014 584.365,322.514 593.5,320.5C 593.5,320.833 593.5,321.167 593.5,321.5C 593.082,322.222 592.416,322.722 591.5,323C 581.506,323.5 571.506,323.666 561.5,323.5C 559.5,322.5 557.5,321.5 555.5,320.5C 552.947,318.416 549.947,317.083 546.5,316.5C 540.908,312.977 537.575,307.977 536.5,301.5 Z"/></g>
<g><path style="opacity:1" fill="#c98a5d" d="M 546.5,316.5 C 549.947,317.083 552.947,318.416 555.5,320.5C 554.127,320.657 552.793,320.49 551.5,320C 549.569,319.098 547.903,317.931 546.5,316.5 Z"/></g>
</svg>
