<?xml version="1.0" encoding="UTF-8"?>
<!DOCTYPE svg PUBLIC "-//W3C//DTD SVG 1.1//EN" "http://www.w3.org/Graphics/SVG/1.1/DTD/svg11.dtd">
<svg xmlns="http://www.w3.org/2000/svg" version="1.1" width="920px" height="500px" style="shape-rendering:geometricPrecision; text-rendering:geometricPrecision; image-rendering:optimizeQuality; fill-rule:evenodd; clip-rule:evenodd" xmlns:xlink="http://www.w3.org/1999/xlink">
<g><path style="opacity:1" fill="#fefefe" d="M -0.5,-0.5 C 306.167,-0.5 612.833,-0.5 919.5,-0.5C 919.5,166.167 919.5,332.833 919.5,499.5C 612.833,499.5 306.167,499.5 -0.5,499.5C -0.5,332.833 -0.5,166.167 -0.5,-0.5 Z"/></g>
<g><path style="opacity:1" fill="#f7c606" d="M 285.5,50.5 C 323.224,46.7729 349.724,62.1062 365,96.5C 369.497,107.793 371.83,119.46 372,131.5C 346.886,114.262 319.052,107.096 288.5,110C 279.533,111.293 270.533,112.293 261.5,113C 245.354,116.04 229.354,119.373 213.5,123C 223.813,95.0126 241.479,73.0126 266.5,57C 272.846,54.4968 279.179,52.3301 285.5,50.5 Z"/></g>
<g><path style="opacity:1" fill="#f7c81d" d="M 282.5,119.5 C 305.239,117.202 327.239,120.035 348.5,128C 356.946,132.639 364.779,138.139 372,144.5C 372.703,147.713 372.536,150.879 371.5,154C 371.15,155.257 370.483,155.591 369.5,155C 342.229,130.505 310.229,120.838 273.5,126C 253.134,128.148 233.134,132.148 213.5,138C 208.885,139.314 207.885,138.314 210.5,135C 234.201,127.807 258.201,122.64 282.5,119.5 Z"/></g>
<g><path style="opacity:1" fill="#f7c819" d="M 276.5,133.5 C 296.423,131.639 315.757,134.139 334.5,141C 347.352,146.845 358.519,155.011 368,165.5C 367.295,169.273 365.961,172.94 364,176.5C 341.755,151.799 313.922,139.799 280.5,140.5C 264.996,140.881 249.662,142.715 234.5,146C 224.95,148.943 215.284,151.443 205.5,153.5C 205.393,151.097 206.393,149.264 208.5,148C 230.771,140.913 253.438,136.08 276.5,133.5 Z"/></g>
<g><path style="opacity:1" fill="#f7c717" d="M 268.5,147.5 C 296.237,145.075 321.57,151.575 344.5,167C 349.903,171.281 354.737,176.114 359,181.5C 360.497,186.166 358.997,189.5 354.5,191.5C 341.275,176.724 325.275,166.224 306.5,160C 288.996,156.625 271.33,155.625 253.5,157C 237.892,158.955 222.559,162.121 207.5,166.5C 207.146,164.459 207.146,162.626 207.5,161C 227.557,154.774 247.89,150.274 268.5,147.5 Z"/></g>
<g><path style="opacity:1" fill="#c4d10b" d="M 137.5,152.5 C 142.544,152.173 147.544,152.506 152.5,153.5C 123.268,176.757 114.102,206.423 125,242.5C 129.221,257.331 134.721,271.664 141.5,285.5C 114.594,281.958 92.4272,269.624 75,248.5C 54.2616,214.955 60.7616,188.122 94.5,168C 108.045,160.321 122.379,155.154 137.5,152.5 Z"/></g>
<g><path style="opacity:1" fill="#d4d233" d="M 166.5,155.5 C 168.355,155.272 169.188,155.939 169,157.5C 150.964,168.586 138.964,184.252 133,204.5C 132.667,212.833 132.333,221.167 132,229.5C 126.779,203.83 133.946,182.33 153.5,165C 157.901,161.812 162.234,158.645 166.5,155.5 Z"/></g>
<g><path style="opacity:1" fill="#d0d22f" d="M 177.5,161.5 C 179.645,161.738 181.312,162.738 182.5,164.5C 163.775,174.056 150.941,188.722 144,208.5C 142.006,234.842 148.006,259.175 162,281.5C 162.788,283.165 163.122,284.831 163,286.5C 147.168,262.511 139.835,236.178 141,207.5C 142.555,198.49 146.221,190.49 152,183.5C 156.167,179.333 160.333,175.167 164.5,171C 169.015,167.97 173.349,164.803 177.5,161.5 Z"/></g>
<g><path style="opacity:1" fill="#f7c817" d="M 265.5,161.5 C 290.293,160.196 312.96,166.363 333.5,180C 340.02,185.019 345.686,190.853 350.5,197.5C 348.5,200.167 346.167,202.5 343.5,204.5C 325.97,185.735 304.303,174.902 278.5,172C 257.334,170.064 236.667,172.23 216.5,178.5C 214.541,177.252 213.041,175.585 212,173.5C 211.409,172.517 211.743,171.85 213,171.5C 230.338,166.624 247.838,163.291 265.5,161.5 Z"/></g>
<g><path style="opacity:1" fill="#cbd224" d="M 184.5,170.5 C 188.909,169.899 190.242,171.566 188.5,175.5C 153.406,195.374 144.572,223.707 162,260.5C 164.73,266.293 167.73,271.96 171,277.5C 171.351,281.099 170.351,281.433 168,278.5C 156.512,259.04 150.512,238.04 150,215.5C 152.582,201.507 159.415,190.007 170.5,181C 175.414,177.723 180.08,174.223 184.5,170.5 Z"/></g>
<g><path style="opacity:1" fill="#f7c714" d="M 259.5,175.5 C 285.383,174.83 308.716,181.997 329.5,197C 333.093,200.085 336.093,203.585 338.5,207.5C 336.627,210.449 333.961,212.449 330.5,213.5C 315.942,199.724 298.608,191.557 278.5,189C 261.444,185.604 244.444,185.77 227.5,189.5C 225.183,187.684 223.016,185.684 221,183.5C 220.568,182.4 221.068,181.733 222.5,181.5C 234.774,178.368 247.107,176.368 259.5,175.5 Z"/></g>
<g><path style="opacity:1" fill="#c9d11b" d="M 191.5,180.5 C 192.496,180.414 193.329,180.748 194,181.5C 194.788,183.165 195.122,184.831 195,186.5C 165.084,202.246 157.084,225.579 171,256.5C 173.5,261.5 176,266.5 178.5,271.5C 177.672,272.415 176.672,273.081 175.5,273.5C 168.14,261.435 162.973,248.435 160,234.5C 157.436,215.793 163.603,200.627 178.5,189C 182.898,186.143 187.232,183.309 191.5,180.5 Z"/></g>
<g><path style="opacity:1" fill="#f7c713" d="M 240.5,190.5 C 258.072,189.458 275.405,190.958 292.5,195C 305.679,198.587 317.012,205.254 326.5,215C 319.607,217.681 312.44,219.181 305,219.5C 277.879,217.435 253.379,208.435 231.5,192.5C 234.642,191.833 237.642,191.166 240.5,190.5 Z"/></g>
<g><path style="opacity:1" fill="#c8d119" d="M 194.5,191.5 C 195.765,192.514 196.431,194.014 196.5,196C 196.333,197.5 196.167,199 196,200.5C 178.195,211.025 171.861,226.358 177,246.5C 179.846,251.361 182.012,256.528 183.5,262C 183.612,263.662 182.946,264.829 181.5,265.5C 177.232,258.627 173.732,251.294 171,243.5C 165.799,224.467 170.966,208.967 186.5,197C 189.407,195.391 192.073,193.558 194.5,191.5 Z"/></g>
<g><path style="opacity:1" fill="#c7d117" d="M 194.5,204.5 C 195.794,206.048 196.461,208.048 196.5,210.5C 195.074,226.331 191.574,241.664 186,256.5C 173.817,236.645 176.65,219.312 194.5,204.5 Z"/></g>
<g><path style="opacity:1" fill="#ee961e" d="M 400.5,212.5 C 402.5,212.5 404.5,212.5 406.5,212.5C 411.241,248.408 408.741,283.741 399,318.5C 395.35,326.469 391.683,334.469 388,342.5C 385.289,343.926 382.789,343.592 380.5,341.5C 396.682,313.609 404.348,283.442 403.5,251C 402.976,238.124 401.976,225.29 400.5,212.5 Z"/></g>
<g><path style="opacity:1" fill="#ec8b08" d="M 479.5,260.5 C 479.468,266.189 479.134,271.855 478.5,277.5C 471.273,324.08 444.273,347.08 397.5,346.5C 417.238,303.854 423.238,259.188 415.5,212.5C 431.363,212.511 446.03,216.677 459.5,225C 472.014,233.527 478.681,245.36 479.5,260.5 Z"/></g>
<g><path style="opacity:1" fill="#ed951b" d="M 389.5,214.5 C 390.5,214.5 391.5,214.5 392.5,214.5C 399.212,251.582 395.712,287.582 382,322.5C 378.832,327.503 375.665,332.503 372.5,337.5C 370.032,336.197 367.699,334.697 365.5,333C 377.362,316.757 384.529,298.59 387,278.5C 388.481,263.194 388.814,247.861 388,232.5C 387.144,226.994 385.644,221.661 383.5,216.5C 385.631,215.831 387.631,215.165 389.5,214.5 Z"/></g>
<g><path style="opacity:1" fill="#ed9116" d="M 374.5,218.5 C 375.822,218.33 376.989,218.663 378,219.5C 379.43,224.745 380.43,230.078 381,235.5C 383.603,261.421 380.27,286.421 371,310.5C 368.131,316.933 364.297,322.6 359.5,327.5C 357.445,325.445 355.779,323.112 354.5,320.5C 365.081,305.937 371.247,289.604 373,271.5C 374.412,253.927 373.245,236.594 369.5,219.5C 371.415,219.784 373.081,219.451 374.5,218.5 Z"/></g>
<g><path style="opacity:1" fill="#ed9013" d="M 360.5,223.5 C 361.822,223.33 362.989,223.663 364,224.5C 372.062,253.611 369.396,281.611 356,308.5C 354.357,310.977 352.524,313.31 350.5,315.5C 348.072,312.982 346.405,309.982 345.5,306.5C 351.891,294.824 356.391,282.49 359,269.5C 360.415,255.226 359.248,241.226 355.5,227.5C 357.419,226.388 359.086,225.054 360.5,223.5 Z"/></g>
<g><path style="opacity:1" fill="#ed8f13" d="M 349.5,230.5 C 350.5,230.5 351.5,230.5 352.5,230.5C 355.618,248.635 355.118,266.635 351,284.5C 349.076,288.017 347.409,291.684 346,295.5C 345.059,297.061 343.892,298.395 342.5,299.5C 340.075,296.567 338.408,293.234 337.5,289.5C 344.531,272.932 346.197,255.766 342.5,238C 344.348,234.987 346.682,232.487 349.5,230.5 Z"/></g>
<g><path style="opacity:1" fill="#ed931b" d="M 338.5,241.5 C 339.167,242.833 339.833,244.167 340.5,245.5C 342.347,257.439 341.347,269.105 337.5,280.5C 336.778,280.918 336.278,281.584 336,282.5C 335.768,281.263 335.268,280.263 334.5,279.5C 332.585,270.946 332.085,262.279 333,253.5C 334.037,249.095 335.871,245.095 338.5,241.5 Z"/></g>
<g><path style="opacity:1" fill="#f2db82" d="M 340.5,245.5 C 339.833,244.167 339.167,242.833 338.5,241.5C 338.783,240.711 339.283,240.044 340,239.5C 340.495,241.473 340.662,243.473 340.5,245.5 Z"/></g>
<g><path style="opacity:1" fill="#9d9385" d="M 755.5,246.5 C 765.917,246.154 776.25,246.821 786.5,248.5C 786.5,252.5 786.5,256.5 786.5,260.5C 782.089,259.307 777.756,257.807 773.5,256C 768.5,255.333 763.5,255.333 758.5,256C 751.577,259.741 749.744,265.241 753,272.5C 754.833,274.333 756.667,276.167 758.5,278C 770.301,283.313 780.801,290.479 790,299.5C 797.937,319.705 791.437,332.539 770.5,338C 759.629,339.232 748.962,338.398 738.5,335.5C 737.507,330.88 737.173,326.214 737.5,321.5C 745.314,325.562 753.647,328.229 762.5,329.5C 777.473,328.55 781.973,321.217 776,307.5C 766.723,300.445 756.89,294.278 746.5,289C 736.849,280.565 734.349,270.398 739,258.5C 743.245,252.641 748.745,248.641 755.5,246.5 Z"/></g>
<g><path style="opacity:1" fill="#9d9284" d="M 518.5,247.5 C 523.167,247.5 527.833,247.5 532.5,247.5C 532.333,260.171 532.5,272.838 533,285.5C 542.167,273 551.333,260.5 560.5,248C 564.871,247.172 569.205,247.339 573.5,248.5C 564.29,261.754 554.956,274.921 545.5,288C 555.792,300.755 564.958,314.255 573,328.5C 574.351,330.019 575.851,331.352 577.5,332.5C 586.903,304.457 596.403,276.457 606,248.5C 611.082,247.363 616.249,247.196 621.5,248C 632.107,277.487 642.107,307.153 651.5,337C 646.467,337.829 641.467,337.662 636.5,336.5C 633.222,328.002 630.556,319.335 628.5,310.5C 618.494,310.334 608.494,310.5 598.5,311C 595.023,319.261 592.023,327.761 589.5,336.5C 581.187,337.665 572.853,337.832 564.5,337C 561.628,334.463 559.128,331.63 557,328.5C 550.532,316.203 542.699,304.87 533.5,294.5C 532.501,308.818 532.167,323.151 532.5,337.5C 527.833,337.5 523.167,337.5 518.5,337.5C 518.5,307.5 518.5,277.5 518.5,247.5 Z"/></g>
<g><path style="opacity:1" fill="#9d9284" d="M 660.5,247.5 C 665.167,247.5 669.833,247.5 674.5,247.5C 674.275,271.516 674.775,295.516 676,319.5C 678.083,327.05 683.083,330.716 691,330.5C 699.239,330.598 704.239,326.598 706,318.5C 706.5,294.836 706.667,271.169 706.5,247.5C 711.5,247.5 716.5,247.5 721.5,247.5C 721.667,269.836 721.5,292.169 721,314.5C 718.259,332.06 707.926,340.06 690,338.5C 676.071,340.209 666.738,334.543 662,321.5C 660.549,296.877 660.049,272.21 660.5,247.5 Z"/></g>
<g><path style="opacity:1" fill="#9d9385" d="M 798.5,247.5 C 817.833,247.5 837.167,247.5 856.5,247.5C 856.5,250.5 856.5,253.5 856.5,256.5C 849.167,256.5 841.833,256.5 834.5,256.5C 834.5,283.5 834.5,310.5 834.5,337.5C 829.5,337.5 824.5,337.5 819.5,337.5C 819.5,310.5 819.5,283.5 819.5,256.5C 812.5,256.5 805.5,256.5 798.5,256.5C 798.5,253.5 798.5,250.5 798.5,247.5 Z"/></g>
<g><path style="opacity:1" fill="#fcfcfc" d="M 611.5,263.5 C 613.411,263.574 614.578,264.574 615,266.5C 618.684,278.048 621.851,289.715 624.5,301.5C 616.833,301.5 609.167,301.5 601.5,301.5C 604.63,288.777 607.963,276.11 611.5,263.5 Z"/></g>
<g><path style="opacity:1" fill="#fae9aa" d="M 479.5,260.5 C 480.883,266.244 480.55,271.91 478.5,277.5C 479.134,271.855 479.468,266.189 479.5,260.5 Z"/></g>
<g><path style="opacity:1" fill="#199ba7" d="M 238.5,278.5 C 261.649,277.538 283.316,282.704 303.5,294C 307.58,296.704 311.247,299.871 314.5,303.5C 284.402,315.104 255.069,313.27 226.5,298C 220.601,294.769 215.268,290.769 210.5,286C 219.659,282.545 228.992,280.045 238.5,278.5 Z"/></g>
<g><path style="opacity:1" fill="#f6eab1" d="M 334.5,279.5 C 335.268,280.263 335.768,281.263 336,282.5C 336.278,281.584 336.778,280.918 337.5,280.5C 337.5,281.5 337.5,282.5 337.5,283.5C 336.5,283.5 335.5,283.5 334.5,283.5C 334.5,282.167 334.5,280.833 334.5,279.5 Z"/></g>
<g><path style="opacity:1" fill="#1e9da8" d="M 203.5,287.5 C 204.873,287.343 206.207,287.51 207.5,288C 240.384,314.907 276.884,321.074 317,306.5C 320.864,308.718 323.698,311.884 325.5,316C 315.658,321.797 304.991,325.13 293.5,326C 257.059,329.3 226.226,317.8 201,291.5C 200.333,290.833 200.333,290.167 201,289.5C 201.995,288.934 202.828,288.267 203.5,287.5 Z"/></g>
<g><path style="opacity:1" fill="#219da9" d="M 193.5,292.5 C 201.985,299.476 210.652,306.31 219.5,313C 254.4,334.525 290.567,337.025 328,320.5C 329.774,323.715 331.274,327.048 332.5,330.5C 330.543,332.485 328.21,333.985 325.5,335C 283.978,349.403 245.978,343.07 211.5,316C 204.364,309.865 197.531,303.365 191,296.5C 190.333,295.833 190.333,295.167 191,294.5C 191.995,293.934 192.828,293.267 193.5,292.5 Z"/></g>
<g><path style="opacity:1" fill="#239ea9" d="M 183.5,297.5 C 192.625,306.786 202.292,315.619 212.5,324C 250.341,350.728 290.675,355.228 333.5,337.5C 335.09,341.036 335.59,344.703 335,348.5C 288.865,366.207 246.699,359.373 208.5,328C 198.42,319.922 189.753,310.589 182.5,300C 183.252,299.329 183.586,298.496 183.5,297.5 Z"/></g>
<g><path style="opacity:1" fill="#259eaa" d="M 174.5,303.5 C 184.914,314.746 195.914,325.579 207.5,336C 246.178,366.029 288.678,372.863 335,356.5C 335.5,356.833 336,357.167 336.5,357.5C 335.915,360.503 335.248,363.503 334.5,366.5C 286.75,381.849 243.75,373.016 205.5,340C 195.266,330.436 185.766,320.269 177,309.5C 175.878,307.593 175.045,305.593 174.5,303.5 Z"/></g>
<g><path style="opacity:1" fill="#149aa6" d="M 158.5,317.5 C 159.496,317.414 160.329,317.748 161,318.5C 184.157,353.317 215.324,378.151 254.5,393C 278.959,400.356 303.626,401.19 328.5,395.5C 329.167,395.833 329.833,396.167 330.5,396.5C 315.468,439.525 285.468,456.359 240.5,447C 205.91,439.795 176.41,423.628 152,398.5C 130.892,369.613 133.059,342.613 158.5,317.5 Z"/></g>
<g><path style="opacity:1" fill="#29a0ab" d="M 169.5,313.5 C 188.157,338.32 211.49,357.487 239.5,371C 270.47,384.448 301.97,385.948 334,375.5C 334.495,378.531 334.329,381.531 333.5,384.5C 290.169,395.946 250.502,388.446 214.5,362C 196.403,348.586 181.403,332.419 169.5,313.5 Z"/></g>
</svg>
