<?xml version="1.0" encoding="UTF-8"?>
<!DOCTYPE svg PUBLIC "-//W3C//DTD SVG 1.1//EN" "http://www.w3.org/Graphics/SVG/1.1/DTD/svg11.dtd">
<svg xmlns="http://www.w3.org/2000/svg" version="1.1" width="225px" height="225px" style="shape-rendering:geometricPrecision; text-rendering:geometricPrecision; image-rendering:optimizeQuality; fill-rule:evenodd; clip-rule:evenodd" xmlns:xlink="http://www.w3.org/1999/xlink">
<g><path style="opacity:1" fill="#fcfcfc" d="M -0.5,-0.5 C 74.5,-0.5 149.5,-0.5 224.5,-0.5C 224.5,74.5 224.5,149.5 224.5,224.5C 149.5,224.5 74.5,224.5 -0.5,224.5C -0.5,149.5 -0.5,74.5 -0.5,-0.5 Z"/></g>
<g><path style="opacity:1" fill="#141414" d="M 109.5,30.5 C 107.869,26.7675 106.869,22.7675 106.5,18.5C 106.389,17.8826 106.056,17.3826 105.5,17C 106.833,16.3333 108.167,16.3333 109.5,17C 108.194,21.4994 108.194,25.9994 109.5,30.5 Z"/></g>
<g><path style="opacity:1" fill="#484848" d="M 128.5,18.5 C 129.552,18.3505 130.552,18.5172 131.5,19C 130.333,19.5 129.5,20.3333 129,21.5C 128.517,20.552 128.351,19.552 128.5,18.5 Z"/></g>
<g><path style="opacity:1" fill="#646464" d="M 92.5,19.5 C 93.3023,18.1153 93.9689,18.282 94.5,20C 95.4091,21.7892 95.5758,23.6226 95,25.5C 94.4338,23.2774 93.6005,21.2774 92.5,19.5 Z"/></g>
<g><path style="opacity:1" fill="#727272" d="M 124.5,28.5 C 123.833,28.5 123.5,28.1667 123.5,27.5C 124.885,26.4264 126.051,25.0931 127,23.5C 127.249,25.668 126.416,27.3347 124.5,28.5 Z"/></g>
<g><path style="opacity:1" fill="#121212" d="M 123.5,27.5 C 123.5,28.1667 123.833,28.5 124.5,28.5C 124.539,29.7562 124.039,30.7562 123,31.5C 122.218,26.8694 121.051,22.3694 119.5,18C 119.833,17.8333 120.167,17.6667 120.5,17.5C 122.119,20.6423 123.119,23.9756 123.5,27.5 Z"/></g>
<g><path style="opacity:1" fill="#282828" d="M 86.5,24.5 C 85.791,23.596 84.791,23.2627 83.5,23.5C 82.1474,22.1329 82.4807,21.1329 84.5,20.5C 87.9101,23.288 91.4101,25.9546 95,28.5C 95.3333,27.8333 95.6667,27.1667 96,26.5C 96.6811,28.5292 97.0144,30.5292 97,32.5C 93.6235,29.6174 90.1235,26.9507 86.5,24.5 Z"/></g>
<g><path style="opacity:1" fill="#888888" d="M 106.5,18.5 C 106.869,22.7675 107.869,26.7675 109.5,30.5C 109.077,31.6299 107.743,31.7966 105.5,31C 106.464,26.9341 106.797,22.7675 106.5,18.5 Z"/></g>
<g><path style="opacity:1" fill="#1d1d1d" d="M 143.5,29.5 C 142.167,29.5 140.833,29.5 139.5,29.5C 138.862,31.46 138.862,33.2933 139.5,35C 138.092,35.3152 136.759,34.9819 135.5,34C 138.622,30.4766 140.289,26.3099 140.5,21.5C 141.552,21.3505 142.552,21.5172 143.5,22C 141.018,24.6532 141.018,27.1532 143.5,29.5 Z"/></g>
<g><path style="opacity:1" fill="#8a8a8a" d="M 83.5,23.5 C 84.791,23.2627 85.791,23.596 86.5,24.5C 85.4579,27.8574 86.1245,31.0241 88.5,34C 87.5,34.5 86.5,35 85.5,35.5C 85.544,31.6698 84.8773,27.6698 83.5,23.5 Z"/></g>
<g><path style="opacity:1" fill="#474747" d="M 143.5,29.5 C 145.355,29.272 146.188,29.9387 146,31.5C 145.005,30.9341 144.172,30.2674 143.5,29.5 Z"/></g>
<g><path style="opacity:1" fill="#1a1a1a" d="M 162.5,31.5 C 159.687,35.0979 156.853,38.7645 154,42.5C 153.5,42 153,41.5 152.5,41C 155.818,37.6857 158.318,33.8524 160,29.5C 160.995,30.0659 161.828,30.7326 162.5,31.5 Z"/></g>
<g><path style="opacity:1" fill="#212121" d="M 74.5,38.5 C 73.5385,42.1461 71.2051,43.3128 67.5,42C 64.9204,38.8416 62.5871,35.5082 60.5,32C 61.0253,31.3076 61.6919,30.8076 62.5,30.5C 64.1044,34.2068 66.1044,37.7068 68.5,41C 69.5,41.6667 70.5,41.6667 71.5,41C 72.3734,39.955 73.3734,39.1217 74.5,38.5 Z"/></g>
<g><path style="opacity:1" fill="#1a1a1a" d="M 74.5,38.5 C 73.3496,34.6569 71.683,30.9902 69.5,27.5C 69.8333,27.1667 70.1667,26.8333 70.5,26.5C 72.5632,30.8073 75.2299,34.6406 78.5,38C 77.1221,39.3342 75.7887,39.5009 74.5,38.5 Z"/></g>
<g><path style="opacity:1" fill="#858585" d="M 140.5,36.5 C 142.035,35.2121 143.701,35.2121 145.5,36.5C 143.905,37.4339 142.239,37.4339 140.5,36.5 Z"/></g>
<g><path style="opacity:1" fill="#343434" d="M 162.5,31.5 C 164.844,31.979 166.178,33.479 166.5,36C 166.046,37.6217 165.046,38.7884 163.5,39.5C 162.682,42.1071 162.182,44.7737 162,47.5C 160.273,44.6513 160.106,41.6513 161.5,38.5C 165.135,36.6778 165.469,34.3445 162.5,31.5 Z"/></g>
<g><path style="opacity:1" fill="#181818" d="M 103.5,36.5 C 146.32,35.6427 173.82,55.6427 186,96.5C 190.517,142.656 170.684,172.489 126.5,186C 87.7608,190.549 59.9275,175.382 43,140.5C 29.7863,95.1028 44.2863,61.9362 86.5,41C 92.2526,39.3137 97.9192,37.8137 103.5,36.5 Z"/></g>
<g><path style="opacity:1" fill="#bababa" d="M 135.5,43.5 C 120.167,44.8333 104.833,44.8333 89.5,43.5C 104.847,39.5523 120.18,39.5523 135.5,43.5 Z"/></g>
<g><path style="opacity:1" fill="#acacac" d="M 89.5,43.5 C 104.833,44.8333 120.167,44.8333 135.5,43.5C 137.922,45.0399 140.589,46.0399 143.5,46.5C 123.167,47.8333 102.833,47.8333 82.5,46.5C 85.128,46.0502 87.4613,45.0502 89.5,43.5 Z"/></g>
<g><path style="opacity:1" fill="#292929" d="M 175.5,44.5 C 176.643,47.9758 176.81,51.6425 176,55.5C 174.274,56.5762 172.441,56.7429 170.5,56C 171.793,55.51 173.127,55.3433 174.5,55.5C 174.244,51.7307 174.577,48.0641 175.5,44.5 Z"/></g>
<g><path style="opacity:1" fill="#676767" d="M 180.5,45.5 C 182.852,46.5426 183.019,47.8759 181,49.5C 180.51,48.2068 180.343,46.8734 180.5,45.5 Z"/></g>
<g><path style="opacity:1" fill="#919191" d="M 82.5,46.5 C 102.833,47.8333 123.167,47.8333 143.5,46.5C 144.74,47.6588 146.074,48.6588 147.5,49.5C 125.491,49.6019 103.491,49.2685 81.5,48.5C 81.3284,47.5084 81.6618,46.8417 82.5,46.5 Z"/></g>
<g><path style="opacity:1" fill="#818181" d="M 38.5,52.5 C 39.1476,49.6772 40.8142,48.1772 43.5,48C 41.9625,49.7073 40.2959,51.2073 38.5,52.5 Z"/></g>
<g><path style="opacity:1" fill="#f3f3f3" d="M 81.5,48.5 C 103.491,49.2685 125.491,49.6019 147.5,49.5C 147.833,49.5 148.167,49.5 148.5,49.5C 124.672,50.4976 100.672,50.8309 76.5,50.5C 77.7804,49.0687 79.4471,48.4021 81.5,48.5 Z"/></g>
<g><path style="opacity:1" fill="#7d7d7d" d="M 148.5,49.5 C 149.338,49.8417 149.672,50.5084 149.5,51.5C 125.172,52.592 100.839,52.592 76.5,51.5C 76.5,51.1667 76.5,50.8333 76.5,50.5C 100.672,50.8309 124.672,50.4976 148.5,49.5 Z"/></g>
<g><path style="opacity:1" fill="#535353" d="M 168.5,50.5 C 169.598,51.6009 169.765,52.9343 169,54.5C 167.666,53.1221 167.499,51.7887 168.5,50.5 Z"/></g>
<g><path style="opacity:1" fill="#5a5a5a" d="M 45.5,51.5 C 47.7602,52.2376 47.9269,53.2376 46,54.5C 45.5172,53.552 45.3505,52.552 45.5,51.5 Z"/></g>
<g><path style="opacity:1" fill="#e8e8e8" d="M 76.5,51.5 C 100.839,52.592 125.172,52.592 149.5,51.5C 151.103,51.3118 152.437,51.8118 153.5,53C 150.183,53.4983 146.85,53.665 143.5,53.5C 123.167,53.5 102.833,53.5 82.5,53.5C 79.1501,53.665 75.8168,53.4983 72.5,53C 73.5634,51.8118 74.8967,51.3118 76.5,51.5 Z"/></g>
<g><path style="opacity:1" fill="#181818" d="M 38.5,52.5 C 40.9018,55.2155 43.5685,57.7155 46.5,60C 47.448,60.4828 48.448,60.6495 49.5,60.5C 48.8783,61.6266 48.045,62.6266 47,63.5C 43.8505,60.0206 40.3505,56.854 36.5,54C 37.0442,53.2828 37.7109,52.7828 38.5,52.5 Z"/></g>
<g><path style="opacity:1" fill="#c2c2c2" d="M 82.5,53.5 C 102.833,53.5 123.167,53.5 143.5,53.5C 148.161,54.0563 152.828,54.8896 157.5,56C 127.833,56.6667 98.1667,56.6667 68.5,56C 73.1723,54.8896 77.839,54.0563 82.5,53.5 Z"/></g>
<g><path style="opacity:1" fill="#ebebeb" d="M 65.5,57.5 C 97.1737,57.1668 128.84,57.5001 160.5,58.5C 128.505,59.6666 96.5052,59.8332 64.5,59C 65.056,58.6174 65.3893,58.1174 65.5,57.5 Z"/></g>
<g><path style="opacity:1" fill="#6a6a6a" d="M 49.5,60.5 C 50.0722,58.7446 50.9055,57.0779 52,55.5C 52.747,57.9278 51.9137,59.5944 49.5,60.5 Z"/></g>
<g><path style="opacity:1" fill="#131313" d="M 188.5,57.5 C 189.756,57.4614 190.756,57.9614 191.5,59C 186.796,60.711 182.962,63.5444 180,67.5C 179.626,66.5838 179.126,65.7504 178.5,65C 182.3,63.0211 185.634,60.5211 188.5,57.5 Z"/></g>
<g><path style="opacity:1" fill="#191919" d="M 29.5,63.5 C 32.6703,67.1081 36.6703,69.7748 41.5,71.5C 36.8601,71.277 32.5268,69.6103 28.5,66.5C 29.1272,65.5832 29.4606,64.5832 29.5,63.5 Z"/></g>
<g><path style="opacity:1" fill="#d8d8d8" d="M 57.5,65.5 C 58.675,65.281 59.675,65.6143 60.5,66.5C 59.277,67.6139 57.9437,67.7805 56.5,67C 57.056,66.6174 57.3893,66.1174 57.5,65.5 Z"/></g>
<g><path style="opacity:1" fill="#e0e0e0" d="M 164.5,65.5 C 165.675,65.281 166.675,65.6143 167.5,66.5C 165.948,67.7979 164.948,67.4646 164.5,65.5 Z"/></g>
<g><path style="opacity:1" fill="#757575" d="M 197.5,70.5 C 195.912,69.3647 195.579,68.0314 196.5,66.5C 197.429,67.6888 197.762,69.0222 197.5,70.5 Z"/></g>
<g><path style="opacity:1" fill="#dedede" d="M 54.5,68.5 C 56.604,68.2011 58.604,68.5344 60.5,69.5C 59.5,69.8333 58.5,70.1667 57.5,70.5C 55.9704,70.3601 54.9704,69.6935 54.5,68.5 Z"/></g>
<g><path style="opacity:1" fill="#e7e7e7" d="M 52.5,71.5 C 55.2469,71.1866 57.9135,71.52 60.5,72.5C 59.1667,72.8333 57.8333,73.1667 56.5,73.5C 54.6672,73.4146 53.3339,72.7479 52.5,71.5 Z"/></g>
<g><path style="opacity:1" fill="#cacaca" d="M 172.5,73.5 C 169.833,73.5 167.167,73.5 164.5,73.5C 164.5,71.8333 164.5,70.1667 164.5,68.5C 168.8,67.7988 171.466,69.4655 172.5,73.5 Z"/></g>
<g><path style="opacity:1" fill="#1e1e1e" d="M 197.5,70.5 C 198.674,71.5137 199.34,72.847 199.5,74.5C 194.953,74.4991 190.786,76.1658 187,79.5C 186.308,78.9747 185.808,78.3081 185.5,77.5C 189.073,75.6418 192.739,73.9751 196.5,72.5C 197.298,72.0431 197.631,71.3764 197.5,70.5 Z"/></g>
<g><path style="opacity:1" fill="#d2d2d2" d="M 50.5,74.5 C 53.8984,74.1796 57.2317,74.513 60.5,75.5C 58.8333,75.8333 57.1667,76.1667 55.5,76.5C 53.3603,76.4439 51.6936,75.7773 50.5,74.5 Z"/></g>
<g><path style="opacity:1" fill="#555555" d="M 199.5,74.5 C 201.088,75.6353 201.421,76.9686 200.5,78.5C 199.571,77.3112 199.238,75.9778 199.5,74.5 Z"/></g>
<g><path style="opacity:1" fill="#282828" d="M 25.5,72.5 C 26.5186,74.5069 28.1853,75.8402 30.5,76.5C 31.8834,73.9244 32.7167,74.2577 33,77.5C 34.586,78.376 36.086,79.376 37.5,80.5C 37.1667,80.8333 36.8333,81.1667 36.5,81.5C 32.3874,79.1094 28.0541,77.2761 23.5,76C 24.305,74.8873 24.9717,73.7206 25.5,72.5 Z"/></g>
<g><path style="opacity:1" fill="#c3c3c3" d="M 60.5,87.5 C 55.5,87.5 50.5,87.5 45.5,87.5C 46.4473,84.3232 47.7807,81.3232 49.5,78.5C 53.1073,77.5108 56.774,77.1774 60.5,77.5C 60.5,80.8333 60.5,84.1667 60.5,87.5 Z"/></g>
<g><path style="opacity:1" fill="#b8b8b8" d="M 164.5,73.5 C 167.167,73.5 169.833,73.5 172.5,73.5C 176.093,78.22 178.76,83.5533 180.5,89.5C 175.208,90.4948 169.875,90.8282 164.5,90.5C 164.5,84.8333 164.5,79.1667 164.5,73.5 Z"/></g>
<g><path style="opacity:1" fill="#969696" d="M 45.5,87.5 C 50.5,87.5 55.5,87.5 60.5,87.5C 60.5,88.1667 60.5,88.8333 60.5,89.5C 55.1667,89.5 49.8333,89.5 44.5,89.5C 44.8333,88.8333 45.1667,88.1667 45.5,87.5 Z"/></g>
<g><path style="opacity:1" fill="#d4d4d4" d="M 44.5,89.5 C 49.8333,89.5 55.1667,89.5 60.5,89.5C 60.5,90.8333 60.5,92.1667 60.5,93.5C 54.7945,93.8288 49.1278,93.4954 43.5,92.5C 46.7848,91.6764 50.1182,91.1764 53.5,91C 50.3054,90.8195 47.3054,90.3195 44.5,89.5 Z"/></g>
<g><path style="opacity:1" fill="#292929" d="M 19.5,92.5 C 19.162,89.8431 19.8287,87.5098 21.5,85.5C 21.166,87.1653 21.166,88.9986 21.5,91C 25.466,91.8279 29.466,92.3279 33.5,92.5C 33.719,93.675 33.3857,94.675 32.5,95.5C 28.3421,93.7104 24.0088,92.7104 19.5,92.5 Z"/></g>
<g><path style="opacity:1" fill="#efefef" d="M 164.5,91.5 C 170.206,91.1712 175.872,91.5046 181.5,92.5C 178.667,92.8333 175.833,93.1667 173,93.5C 169.748,93.4809 166.915,92.8142 164.5,91.5 Z"/></g>
<g><path style="opacity:1" fill="#1d1d1d" d="M 203.5,85.5 C 204.598,86.6009 204.765,87.9343 204,89.5C 200.941,93.4332 196.941,95.7665 192,96.5C 191.517,95.552 191.351,94.552 191.5,93.5C 197.382,93.6132 201.382,90.9465 203.5,85.5 Z"/></g>
<g><path style="opacity:1" fill="#404040" d="M 19.5,92.5 C 19.7852,94.288 19.4519,95.9547 18.5,97.5C 18.1667,97.3333 17.8333,97.1667 17.5,97C 18.0989,95.3775 18.7656,93.8775 19.5,92.5 Z"/></g>
<g><path style="opacity:1" fill="#ebebeb" d="M 42.5,94.5 C 48.5368,94.1707 54.5368,94.5041 60.5,95.5C 57.5,95.8333 54.5,96.1667 51.5,96.5C 48.0866,96.483 45.0866,95.8164 42.5,94.5 Z"/></g>
<g><path style="opacity:1" fill="#ededed" d="M 164.5,94.5 C 170.537,94.1707 176.537,94.5041 182.5,95.5C 179.5,95.8333 176.5,96.1667 173.5,96.5C 170.087,96.483 167.087,95.8164 164.5,94.5 Z"/></g>
<g><path style="opacity:1" fill="#515151" d="M 200.5,95.5 C 202.257,95.0068 204.091,94.6735 206,94.5C 206.667,95.5 206.667,96.5 206,97.5C 204.275,96.536 202.441,95.8693 200.5,95.5 Z"/></g>
<g><path style="opacity:1" fill="#ebebeb" d="M 41.5,97.5 C 47.8682,97.1703 54.2015,97.5037 60.5,98.5C 57.3333,98.8333 54.1667,99.1667 51,99.5C 47.4242,99.4848 44.2575,98.8182 41.5,97.5 Z"/></g>
<g><path style="opacity:1" fill="#eeeeee" d="M 164.5,97.5 C 170.868,97.1703 177.202,97.5037 183.5,98.5C 180.333,98.8333 177.167,99.1667 174,99.5C 170.424,99.4848 167.258,98.8182 164.5,97.5 Z"/></g>
<g><path style="opacity:1" fill="#efefef" d="M 41.5,100.5 C 47.8682,100.17 54.2015,100.504 60.5,101.5C 57.3333,101.833 54.1667,102.167 51,102.5C 47.4242,102.485 44.2575,101.818 41.5,100.5 Z"/></g>
<g><path style="opacity:1" fill="#efefef" d="M 164.5,100.5 C 170.868,100.17 177.202,100.504 183.5,101.5C 180.333,101.833 177.167,102.167 174,102.5C 170.424,102.485 167.258,101.818 164.5,100.5 Z"/></g>
<g><path style="opacity:1" fill="#f1f1f1" d="M 41.5,103.5 C 47.8682,103.17 54.2015,103.504 60.5,104.5C 57.3333,104.833 54.1667,105.167 51,105.5C 47.4242,105.485 44.2575,104.818 41.5,103.5 Z"/></g>
<g><path style="opacity:1" fill="#f4f4f4" d="M 164.5,103.5 C 170.868,103.17 177.202,103.504 183.5,104.5C 180.333,104.833 177.167,105.167 174,105.5C 170.424,105.485 167.258,104.818 164.5,103.5 Z"/></g>
<g><path style="opacity:1" fill="#f8f8f8" d="M 40.5,106.5 C 47.1998,106.17 53.8665,106.503 60.5,107.5C 57.1667,107.833 53.8333,108.167 50.5,108.5C 46.7614,108.486 43.428,107.82 40.5,106.5 Z"/></g>
<g><path style="opacity:1" fill="#f8f8f8" d="M 164.5,106.5 C 170.868,106.17 177.202,106.504 183.5,107.5C 180.333,107.833 177.167,108.167 174,108.5C 170.424,108.485 167.258,107.818 164.5,106.5 Z"/></g>
<g><path style="opacity:1" fill="#c0c0c0" d="M 55.5,112.5 C 50.5,112.5 45.5,112.5 40.5,112.5C 40.5,111.5 40.5,110.5 40.5,109.5C 47.1998,109.17 53.8665,109.503 60.5,110.5C 58.7086,111.17 57.0419,111.837 55.5,112.5 Z"/></g>
<g><path style="opacity:1" fill="#d7d7d7" d="M 164.5,109.5 C 171.2,109.17 177.866,109.503 184.5,110.5C 181.167,110.833 177.833,111.167 174.5,111.5C 170.761,111.486 167.428,110.82 164.5,109.5 Z"/></g>
<g><path style="opacity:1" fill="#141414" d="M 22.5,112.5 C 24.337,112.639 24.6704,113.306 23.5,114.5C 22.7025,114.043 22.3691,113.376 22.5,112.5 Z"/></g>
<g><path style="opacity:1" fill="#dddddd" d="M 40.5,112.5 C 45.5,112.5 50.5,112.5 55.5,112.5C 57.288,112.215 58.9547,112.548 60.5,113.5C 57.1667,113.833 53.8333,114.167 50.5,114.5C 46.7614,114.486 43.428,113.82 40.5,112.5 Z"/></g>
<g><path style="opacity:1" fill="#dddddd" d="M 164.5,112.5 C 171.2,112.17 177.866,112.503 184.5,113.5C 181.167,113.833 177.833,114.167 174.5,114.5C 170.761,114.486 167.428,113.82 164.5,112.5 Z"/></g>
<g><path style="opacity:1" fill="#686868" d="M 199.5,113.5 C 200.386,112.224 201.386,112.224 202.5,113.5C 201.575,114.562 200.575,114.562 199.5,113.5 Z"/></g>
<g><path style="opacity:1" fill="#e7e7e7" d="M 40.5,115.5 C 47.1998,115.17 53.8665,115.503 60.5,116.5C 57.1667,116.833 53.8333,117.167 50.5,117.5C 46.7614,117.486 43.428,116.82 40.5,115.5 Z"/></g>
<g><path style="opacity:1" fill="#ededed" d="M 164.5,115.5 C 170.868,115.17 177.202,115.504 183.5,116.5C 180.333,116.833 177.167,117.167 174,117.5C 170.424,117.485 167.258,116.818 164.5,115.5 Z"/></g>
<g><path style="opacity:1" fill="#eaeaea" d="M 164.5,118.5 C 170.868,118.17 177.202,118.504 183.5,119.5C 180.333,119.833 177.167,120.167 174,120.5C 170.424,120.485 167.258,119.818 164.5,118.5 Z"/></g>
<g><path style="opacity:1" fill="#d1d1d1" d="M 41.5,118.5 C 47.8682,118.17 54.2015,118.504 60.5,119.5C 57.3333,119.833 54.1667,120.167 51,120.5C 47.4242,120.485 44.2575,119.818 41.5,118.5 Z"/></g>
<g><path style="opacity:1" fill="#cacaca" d="M 60.5,123.5 C 54.1667,123.5 47.8333,123.5 41.5,123.5C 44.2575,122.182 47.4242,121.515 51,121.5C 54.5758,121.515 57.7425,122.182 60.5,123.5 Z"/></g>
<g><path style="opacity:1" fill="#d2d2d2" d="M 164.5,121.5 C 170.868,121.17 177.202,121.504 183.5,122.5C 180.333,122.833 177.167,123.167 174,123.5C 170.424,123.485 167.258,122.818 164.5,121.5 Z"/></g>
<g><path style="opacity:1" fill="#727272" d="M 41.5,123.5 C 47.8333,123.5 54.1667,123.5 60.5,123.5C 60.5,123.833 60.5,124.167 60.5,124.5C 54.31,124.177 48.31,124.51 42.5,125.5C 41.6618,125.158 41.3284,124.492 41.5,123.5 Z"/></g>
<g><path style="opacity:1" fill="#c8c8c8" d="M 182.5,128.5 C 176.5,128.5 170.5,128.5 164.5,128.5C 164.5,127.167 164.5,125.833 164.5,124.5C 170.5,124.5 176.5,124.5 182.5,124.5C 182.5,125.833 182.5,127.167 182.5,128.5 Z"/></g>
<g><path style="opacity:1" fill="#c1c1c1" d="M 60.5,124.5 C 60.5,125.833 60.5,127.167 60.5,128.5C 54.5,128.5 48.5,128.5 42.5,128.5C 42.5,127.5 42.5,126.5 42.5,125.5C 48.31,124.51 54.31,124.177 60.5,124.5 Z"/></g>
<g><path style="opacity:1" fill="#262626" d="M 31.5,130.5 C 29.5853,130.216 27.9187,130.549 26.5,131.5C 24.7162,131.893 23.0495,132.559 21.5,133.5C 23.7033,128.451 27.0366,127.451 31.5,130.5 Z"/></g>
<g><path style="opacity:1" fill="#afafaf" d="M 42.5,128.5 C 48.5,128.5 54.5,128.5 60.5,128.5C 60.5,129.5 60.5,130.5 60.5,131.5C 54.8333,131.5 49.1667,131.5 43.5,131.5C 42.596,130.791 42.2627,129.791 42.5,128.5 Z"/></g>
<g><path style="opacity:1" fill="#b2b2b2" d="M 164.5,128.5 C 170.5,128.5 176.5,128.5 182.5,128.5C 181.89,129.391 181.557,130.391 181.5,131.5C 175.833,131.5 170.167,131.5 164.5,131.5C 163.375,130.652 163.375,129.652 164.5,128.5 Z"/></g>
<g><path style="opacity:1" fill="#7f7f7f" d="M 26.5,131.5 C 27.9187,130.549 29.5853,130.216 31.5,130.5C 33.0281,130.517 33.5281,131.184 33,132.5C 30.9592,131.577 28.7925,131.244 26.5,131.5 Z"/></g>
<g><path style="opacity:1" fill="#1c1c1c" d="M 199.5,133.5 C 198.791,132.596 197.791,132.263 196.5,132.5C 194.883,131.962 193.216,131.629 191.5,131.5C 191.351,130.448 191.517,129.448 192,128.5C 196.075,131.204 200.408,132.204 205,131.5C 205.483,132.448 205.649,133.448 205.5,134.5C 203.5,134.167 201.5,133.833 199.5,133.5 Z"/></g>
<g><path style="opacity:1" fill="#6d6d6d" d="M 43.5,131.5 C 49.1667,131.5 54.8333,131.5 60.5,131.5C 60.5,131.833 60.5,132.167 60.5,132.5C 54.7291,131.887 49.3958,132.554 44.5,134.5C 43.596,133.791 43.2627,132.791 43.5,131.5 Z"/></g>
<g><path style="opacity:1" fill="#929292" d="M 164.5,132.5 C 164.5,132.167 164.5,131.833 164.5,131.5C 170.167,131.5 175.833,131.5 181.5,131.5C 181.167,132.167 180.833,132.833 180.5,133.5C 175.13,133.608 169.797,133.275 164.5,132.5 Z"/></g>
<g><path style="opacity:1" fill="#cfcfcf" d="M 60.5,132.5 C 60.5,133.167 60.5,133.833 60.5,134.5C 55.8333,134.5 51.1667,134.5 46.5,134.5C 45.8333,134.5 45.1667,134.5 44.5,134.5C 49.3958,132.554 54.7291,131.887 60.5,132.5 Z"/></g>
<g><path style="opacity:1" fill="#f5f5f5" d="M 164.5,132.5 C 169.797,133.275 175.13,133.608 180.5,133.5C 180.158,134.338 179.492,134.672 178.5,134.5C 173.833,134.5 169.167,134.5 164.5,134.5C 164.5,133.833 164.5,133.167 164.5,132.5 Z"/></g>
<g><path style="opacity:1" fill="#616161" d="M 46.5,135.5 C 46.5,135.167 46.5,134.833 46.5,134.5C 51.1667,134.5 55.8333,134.5 60.5,134.5C 60.5,135.167 60.5,135.833 60.5,136.5C 55.9296,135.559 51.263,135.226 46.5,135.5 Z"/></g>
<g><path style="opacity:1" fill="#848484" d="M 164.5,134.5 C 169.167,134.5 173.833,134.5 178.5,134.5C 178.5,134.833 178.5,135.167 178.5,135.5C 173.833,135.833 169.167,136.167 164.5,136.5C 164.5,135.833 164.5,135.167 164.5,134.5 Z"/></g>
<g><path style="opacity:1" fill="#d8d8d8" d="M 46.5,135.5 C 51.263,135.226 55.9296,135.559 60.5,136.5C 60.5,136.833 60.5,137.167 60.5,137.5C 55.5,137.5 50.5,137.5 45.5,137.5C 44.2426,136.377 44.5759,135.711 46.5,135.5 Z"/></g>
<g><path style="opacity:1" fill="#f2f2f2" d="M 178.5,135.5 C 179.833,136.167 179.833,136.833 178.5,137.5C 173.833,137.5 169.167,137.5 164.5,137.5C 164.5,137.167 164.5,136.833 164.5,136.5C 169.167,136.167 173.833,135.833 178.5,135.5 Z"/></g>
<g><path style="opacity:1" fill="#525252" d="M 45.5,137.5 C 50.5,137.5 55.5,137.5 60.5,137.5C 60.5,138.167 60.5,138.833 60.5,139.5C 58.087,138.889 55.587,138.555 53,138.5C 50.3897,138.533 48.223,139.2 46.5,140.5C 45.596,139.791 45.2627,138.791 45.5,137.5 Z"/></g>
<g><path style="opacity:1" fill="#8f8f8f" d="M 196.5,132.5 C 197.791,132.263 198.791,132.596 199.5,133.5C 197.759,135.395 196.759,137.728 196.5,140.5C 195.508,140.672 194.842,140.338 194.5,139.5C 196.163,137.562 196.829,135.228 196.5,132.5 Z"/></g>
<g><path style="opacity:1" fill="#161616" d="M 24.5,143.5 C 25.8333,142.833 27.1667,142.167 28.5,141.5C 30.679,141.16 32.5123,140.16 34,138.5C 34.1626,140.387 33.3293,141.887 31.5,143C 29.1902,143.497 26.8568,143.663 24.5,143.5 Z"/></g>
<g><path style="opacity:1" fill="#eaeaea" d="M 60.5,139.5 C 56.03,140.486 51.3633,140.819 46.5,140.5C 48.223,139.2 50.3897,138.533 53,138.5C 55.587,138.555 58.087,138.889 60.5,139.5 Z"/></g>
<g><path style="opacity:1" fill="#737373" d="M 21.5,133.5 C 20.3373,139.334 22.6706,142 28.5,141.5C 27.1667,142.167 25.8333,142.833 24.5,143.5C 20.5759,140.998 19.5759,137.664 21.5,133.5 Z"/></g>
<g><path style="opacity:1" fill="#5e5e5e" d="M 177.5,140.5 C 177.737,141.791 177.404,142.791 176.5,143.5C 175.051,141.836 173.051,141.002 170.5,141C 172.81,140.503 175.143,140.337 177.5,140.5 Z"/></g>
<g><path style="opacity:1" fill="#c1c1c1" d="M 164.5,137.5 C 169.167,137.5 173.833,137.5 178.5,137.5C 178.737,138.791 178.404,139.791 177.5,140.5C 175.143,140.337 172.81,140.503 170.5,141C 173.051,141.002 175.051,141.836 176.5,143.5C 176.068,144.71 175.401,145.71 174.5,146.5C 171.167,146.5 167.833,146.5 164.5,146.5C 164.5,143.5 164.5,140.5 164.5,137.5 Z"/></g>
<g><path style="opacity:1" fill="#161616" d="M 194.5,139.5 C 194.842,140.338 195.508,140.672 196.5,140.5C 198.505,141.039 200.505,141.705 202.5,142.5C 201.833,142.833 201.167,143.167 200.5,143.5C 196.406,142.618 192.406,141.451 188.5,140C 189,139.5 189.5,139 190,138.5C 191.356,139.38 192.856,139.714 194.5,139.5 Z"/></g>
<g><path style="opacity:1" fill="#eaeaea" d="M 47.5,141.5 C 52.032,141.069 56.3654,141.569 60.5,143C 58.3333,143.167 56.1667,143.333 54,143.5C 51.3897,143.467 49.223,142.8 47.5,141.5 Z"/></g>
<g><path style="opacity:1" fill="#e4e4e4" d="M 48.5,144.5 C 52.7032,144.076 56.7032,144.576 60.5,146C 58.5,146.167 56.5,146.333 54.5,146.5C 52.0478,146.461 50.0478,145.794 48.5,144.5 Z"/></g>
<g><path style="opacity:1" fill="#b4b4b4" d="M 164.5,146.5 C 167.833,146.5 171.167,146.5 174.5,146.5C 174.443,147.609 174.11,148.609 173.5,149.5C 170.5,149.5 167.5,149.5 164.5,149.5C 164.5,148.5 164.5,147.5 164.5,146.5 Z"/></g>
<g><path style="opacity:1" fill="#ededed" d="M 50.5,147.5 C 53.8984,147.18 57.2317,147.513 60.5,148.5C 58.8333,148.833 57.1667,149.167 55.5,149.5C 53.3603,149.444 51.6936,148.777 50.5,147.5 Z"/></g>
<g><path style="opacity:1" fill="#d8d8d8" d="M 52.5,150.5 C 54.924,150.192 57.2573,150.526 59.5,151.5C 58.3333,151.833 57.1667,152.167 56,152.5C 54.3189,152.392 53.1522,151.725 52.5,150.5 Z"/></g>
<g><path style="opacity:1" fill="#868686" d="M 164.5,150.5 C 164.5,150.167 164.5,149.833 164.5,149.5C 167.5,149.5 170.5,149.5 173.5,149.5C 172.833,150.167 172.167,150.833 171.5,151.5C 169.194,151.007 166.861,150.674 164.5,150.5 Z"/></g>
<g><path style="opacity:1" fill="#434343" d="M 184.5,149.5 C 188.279,150.791 187.946,151.791 183.5,152.5C 183.167,152.333 182.833,152.167 182.5,152C 183.381,151.292 184.047,150.458 184.5,149.5 Z"/></g>
<g><path style="opacity:1" fill="#e1e1e1" d="M 164.5,150.5 C 166.861,150.674 169.194,151.007 171.5,151.5C 170.428,155.32 168.094,156.32 164.5,154.5C 166.078,153.702 167.744,153.202 169.5,153C 167.256,152.95 165.589,152.117 164.5,150.5 Z"/></g>
<g><path style="opacity:1" fill="#181818" d="M 40.5,150.5 C 40.5,150.833 40.5,151.167 40.5,151.5C 36.7004,153.234 33.0337,155.234 29.5,157.5C 28.6919,157.192 28.0253,156.692 27.5,156C 32.4167,154.63 36.5834,152.13 40,148.5C 40.4643,149.094 40.631,149.761 40.5,150.5 Z"/></g>
<g><path style="opacity:1" fill="#e4e4e4" d="M 54.5,153.5 C 56.604,153.201 58.604,153.534 60.5,154.5C 59.5,154.833 58.5,155.167 57.5,155.5C 55.9704,155.36 54.9704,154.693 54.5,153.5 Z"/></g>
<g><path style="opacity:1" fill="#727272" d="M 40.5,150.5 C 42.1786,152 43.5119,153.833 44.5,156C 44,156.5 43.5,157 43,157.5C 42.4275,155.359 41.5942,153.359 40.5,151.5C 40.5,151.167 40.5,150.833 40.5,150.5 Z"/></g>
<g><path style="opacity:1" fill="#151515" d="M 191.5,152.5 C 192.674,154.441 194.341,155.941 196.5,157C 195.874,157.75 195.374,158.584 195,159.5C 194.167,157.333 192.667,155.833 190.5,155C 191.252,154.329 191.586,153.496 191.5,152.5 Z"/></g>
<g><path style="opacity:1" fill="#ececec" d="M 56.5,157.5 C 57.7082,156.218 59.0416,156.218 60.5,157.5C 59.1916,158.626 57.8583,158.626 56.5,157.5 Z"/></g>
<g><path style="opacity:1" fill="#e5e5e5" d="M 164.5,156.5 C 165.675,156.281 166.675,156.614 167.5,157.5C 165.948,158.798 164.948,158.465 164.5,156.5 Z"/></g>
<g><path style="opacity:1" fill="#5c5c5c" d="M 36.5,156.5 C 38.3675,157.786 38.5342,159.119 37,160.5C 36.51,159.207 36.3433,157.873 36.5,156.5 Z"/></g>
<g><path style="opacity:1" fill="#c7c7c7" d="M 58.5,160.5 C 59.0768,159.227 59.7435,159.227 60.5,160.5C 60.0302,161.463 59.3635,161.463 58.5,160.5 Z"/></g>
<g><path style="opacity:1" fill="#191919" d="M 180.5,154.5 C 182.066,160.544 186.066,163.377 192.5,163C 184.565,165.859 180.565,163.026 180.5,154.5 Z"/></g>
<g><path style="opacity:1" fill="#d6d6d6" d="M 63.5,61.5 C 63.1694,83.0065 63.5027,104.34 64.5,125.5C 64.3335,137.171 64.5001,148.838 65,160.5C 66.9445,163.734 69.7778,165.9 73.5,167C 75.0657,167.765 76.3991,167.598 77.5,166.5C 78.4916,166.328 79.1583,166.662 79.5,167.5C 85.6698,168.956 92.0031,169.956 98.5,170.5C 99.5,170.5 100.5,170.5 101.5,170.5C 105.043,172.202 108.21,174.535 111,177.5C 112.376,176.295 113.542,174.962 114.5,173.5C 115.829,172.406 116.663,171.073 117,169.5C 118.011,169.892 118.511,170.559 118.5,171.5C 121.748,170.355 125.081,169.521 128.5,169C 127.584,168.722 126.918,168.222 126.5,167.5C 132.221,167.631 137.888,167.131 143.5,166C 144.056,165.617 144.389,165.117 144.5,164.5C 145.151,165.091 145.818,165.757 146.5,166.5C 150.353,165.498 153.853,163.831 157,161.5C 158.406,153.251 158.906,144.917 158.5,136.5C 158.5,119.833 158.5,103.167 158.5,86.5C 158.5,78.8333 158.5,71.1667 158.5,63.5C 152.132,63.1703 145.798,63.5037 139.5,64.5C 130.984,72.1827 122.984,80.3493 115.5,89C 113.172,88.7783 112.838,87.6116 114.5,85.5C 116.735,84.7721 118.568,83.4388 120,81.5C 120.159,78.0007 120.325,74.6673 120.5,71.5C 123.297,69.205 125.964,66.705 128.5,64C 107.503,63.5 86.5026,63.3334 65.5,63.5C 75.5,62.8333 85.5,62.1667 95.5,61.5C 117.167,61.5 138.833,61.5 160.5,61.5C 160.667,94.1684 160.5,126.835 160,159.5C 157.545,164.149 153.712,166.983 148.5,168C 139.549,169.662 130.549,170.995 121.5,172C 116.792,173.378 113.292,176.212 111,180.5C 108.913,176.698 105.746,174.198 101.5,173C 92.1698,171.667 82.8365,170.334 73.5,169C 69.3359,168.177 66.1692,166.01 64,162.5C 62.8536,145.23 62.3536,127.897 62.5,110.5C 62.5001,93.9966 62.8334,77.6632 63.5,61.5 Z"/></g>
<g><path style="opacity:1" fill="#efefef" d="M 114.5,172.5 C 113.206,173.29 112.039,174.29 111,175.5C 110.5,175 110,174.5 109.5,174C 111.321,171.544 111.988,168.711 111.5,165.5C 112.117,165.389 112.617,165.056 113,164.5C 113.395,167.207 113.895,169.873 114.5,172.5 Z"/></g>
<g><path style="opacity:1" fill="#f3f3f3" d="M 144.5,164.5 C 144.389,165.117 144.056,165.617 143.5,166C 137.888,167.131 132.221,167.631 126.5,167.5C 126.5,165.167 126.5,162.833 126.5,160.5C 124.901,160.768 123.568,160.434 122.5,159.5C 122.5,158.833 122.167,158.5 121.5,158.5C 121.67,157.178 121.337,156.011 120.5,155C 125.11,154.764 127.443,152.264 127.5,147.5C 133.575,152.908 139.242,158.575 144.5,164.5 Z"/></g>
<g><path style="opacity:1" fill="#f8f8f8" d="M 98.5,168.5 C 92.155,168.347 85.8217,168.014 79.5,167.5C 79.1583,166.662 78.4916,166.328 77.5,166.5C 84.1307,159.368 90.9641,152.368 98,145.5C 97.1728,151.372 99.6728,154.205 105.5,154C 104.308,155.912 103.308,157.912 102.5,160C 101.207,160.49 99.8734,160.657 98.5,160.5C 98.5,163.167 98.5,165.833 98.5,168.5 Z"/></g>
<g><path style="opacity:1" fill="#4f4f4f" d="M 156.5,87.5 C 156.842,86.6618 157.508,86.3284 158.5,86.5C 158.5,103.167 158.5,119.833 158.5,136.5C 158.167,136.5 157.833,136.5 157.5,136.5C 157.83,119.991 157.496,103.658 156.5,87.5 Z"/></g>
<g><path style="opacity:1" fill="#fafafa" d="M 156.5,87.5 C 157.496,103.658 157.83,119.991 157.5,136.5C 148.965,128.799 140.965,120.632 133.5,112C 141.02,103.648 148.687,95.4812 156.5,87.5 Z"/></g>
<g><path style="opacity:1" fill="#050505" d="M 65.5,63.5 C 86.5026,63.3334 107.503,63.5 128.5,64C 125.964,66.705 123.297,69.205 120.5,71.5C 120.557,70.391 120.89,69.391 121.5,68.5C 126.671,63.9156 126.338,63.5823 120.5,67.5C 121.087,66.2334 121.087,65.2334 120.5,64.5C 119.712,65.7701 118.712,66.7701 117.5,67.5C 117.5,66.8333 117.167,66.5 116.5,66.5C 118.054,65.1054 117.721,64.4387 115.5,64.5C 114.287,64.7472 113.62,65.4138 113.5,66.5C 112.833,66.5 112.167,66.5 111.5,66.5C 111.38,65.4138 110.713,64.7472 109.5,64.5C 108.287,64.7472 107.62,65.4138 107.5,66.5C 107.167,66.5 106.833,66.5 106.5,66.5C 106.38,65.4138 105.713,64.7472 104.5,64.5C 103.584,64.5427 102.917,64.8761 102.5,65.5C 100.804,63.871 99.8041,64.2043 99.5,66.5C 95.1236,64.4656 90.4569,63.9656 85.5,65C 94,73.5 102.5,82 111,90.5C 111.748,88.1599 111.248,86.1599 109.5,84.5C 110.222,84.0825 110.722,83.4158 111,82.5C 111.77,83.5981 112.603,83.5981 113.5,82.5C 113.557,83.609 113.89,84.609 114.5,85.5C 112.838,87.6116 113.172,88.7783 115.5,89C 122.984,80.3493 130.984,72.1827 139.5,64.5C 145.798,63.5037 152.132,63.1703 158.5,63.5C 158.5,71.1667 158.5,78.8333 158.5,86.5C 157.508,86.3284 156.842,86.6618 156.5,87.5C 148.687,95.4812 141.02,103.648 133.5,112C 140.965,120.632 148.965,128.799 157.5,136.5C 157.833,136.5 158.167,136.5 158.5,136.5C 158.906,144.917 158.406,153.251 157,161.5C 153.853,163.831 150.353,165.498 146.5,166.5C 145.818,165.757 145.151,165.091 144.5,164.5C 139.242,158.575 133.575,152.908 127.5,147.5C 127.443,152.264 125.11,154.764 120.5,155C 121.337,156.011 121.67,157.178 121.5,158.5C 120.442,157.4 119.608,156.066 119,154.5C 118.349,156.235 118.515,157.902 119.5,159.5C 120.425,160.562 121.425,160.562 122.5,159.5C 123.568,160.434 124.901,160.768 126.5,160.5C 126.5,162.833 126.5,165.167 126.5,167.5C 126.918,168.222 127.584,168.722 128.5,169C 125.081,169.521 121.748,170.355 118.5,171.5C 118.511,170.559 118.011,169.892 117,169.5C 116.663,171.073 115.829,172.406 114.5,173.5C 114.5,173.167 114.5,172.833 114.5,172.5C 113.895,169.873 113.395,167.207 113,164.5C 112.617,165.056 112.117,165.389 111.5,165.5C 111.577,164.25 112.244,163.417 113.5,163C 112.056,162.219 110.723,162.386 109.5,163.5C 108.652,165.409 108.318,167.409 108.5,169.5C 106.05,169.298 103.717,169.631 101.5,170.5C 100.5,170.5 99.5,170.5 98.5,170.5C 98.5,169.833 98.5,169.167 98.5,168.5C 98.5,165.833 98.5,163.167 98.5,160.5C 99.8734,160.657 101.207,160.49 102.5,160C 103.308,157.912 104.308,155.912 105.5,154C 99.6728,154.205 97.1728,151.372 98,145.5C 90.9641,152.368 84.1307,159.368 77.5,166.5C 76.3991,167.598 75.0657,167.765 73.5,167C 69.7778,165.9 66.9445,163.734 65,160.5C 64.5001,148.838 64.3335,137.171 64.5,125.5C 64.3797,104.823 64.713,84.1568 65.5,63.5 Z"/></g>
<g><path style="opacity:1" fill="#bbbbbb" d="M 123.5,161.5 C 124.725,162.152 125.392,163.319 125.5,165C 125.167,166.167 124.833,167.333 124.5,168.5C 123.526,166.257 123.192,163.924 123.5,161.5 Z"/></g>
<g><path style="opacity:1" fill="#808080" d="M 121.5,158.5 C 122.167,158.5 122.5,158.833 122.5,159.5C 121.425,160.562 120.425,160.562 119.5,159.5C 118.515,157.902 118.349,156.235 119,154.5C 119.608,156.066 120.442,157.4 121.5,158.5 Z"/></g>
<g><path style="opacity:1" fill="#fafafa" d="M 124.5,144.5 C 125.473,146.948 125.806,149.615 125.5,152.5C 117.16,152.666 108.827,152.5 100.5,152C 108.493,151.5 116.493,151.334 124.5,151.5C 124.5,149.167 124.5,146.833 124.5,144.5 Z"/></g>
<g><path style="opacity:1" fill="#c2c2c2" d="M 105.5,145.5 C 101.052,148.116 100.719,147.782 104.5,144.5C 105.107,144.624 105.44,144.957 105.5,145.5 Z"/></g>
<g><path style="opacity:1" fill="#eaeaea" d="M 105.5,145.5 C 106.289,145.217 106.956,144.717 107.5,144C 105.167,143.667 102.833,143.333 100.5,143C 104.333,139.167 108.167,135.333 112,131.5C 115.833,135.333 119.667,139.167 123.5,143C 121.833,143.333 120.167,143.667 118.5,144C 121.067,146.91 120.4,147.744 116.5,146.5C 116.833,145.833 117.167,145.167 117.5,144.5C 114.554,143.345 111.554,143.179 108.5,144C 111.179,145.789 111.013,146.955 108,147.5C 106.624,147.316 105.791,146.649 105.5,145.5 Z"/></g>
<g><path style="opacity:1" fill="#d0d0d0" d="M 114.5,144.5 C 115.713,145.497 115.546,146.497 114,147.5C 113.53,146.423 113.697,145.423 114.5,144.5 Z"/></g>
<g><path style="opacity:1" fill="#676767" d="M 127.5,124.5 C 128.043,124.56 128.376,124.893 128.5,125.5C 125.232,126.487 121.898,126.82 118.5,126.5C 121.5,125.833 124.5,125.167 127.5,124.5 Z"/></g>
<g><path style="opacity:1" fill="#f0f0f0" d="M 108.5,123.5 C 110.71,127.255 113.044,127.255 115.5,123.5C 116.492,123.672 117.158,123.338 117.5,122.5C 119.833,122.5 122.167,122.5 124.5,122.5C 126.027,122.427 127.027,123.094 127.5,124.5C 124.5,125.167 121.5,125.833 118.5,126.5C 116.833,126.5 115.167,126.5 113.5,126.5C 113.5,127.5 113.5,128.5 113.5,129.5C 111.654,129.778 110.32,129.111 109.5,127.5C 104.533,126.671 99.5329,126.171 94.5,126C 98.4723,122.178 103.139,121.345 108.5,123.5 Z"/></g>
<g><path style="opacity:1" fill="#696969" d="M 124.5,121.5 C 124.5,121.833 124.5,122.167 124.5,122.5C 122.167,122.5 119.833,122.5 117.5,122.5C 119.655,120.466 121.988,120.133 124.5,121.5 Z"/></g>
<g><path style="opacity:1" fill="#717171" d="M 130.5,113.5 C 130.665,117.182 130.499,120.848 130,124.5C 128.89,122.11 127.39,121.11 125.5,121.5C 125.5,118.833 125.5,116.167 125.5,113.5C 126.302,114.952 126.802,116.618 127,118.5C 127.413,115.768 128.08,113.101 129,110.5C 129.232,111.737 129.732,112.737 130.5,113.5 Z"/></g>
<g><path style="opacity:1" fill="#909090" d="M 110.5,95.5 C 111.833,104.5 111.833,113.5 110.5,122.5C 110.762,121.022 110.429,119.689 109.5,118.5C 108.261,118.058 107.261,117.391 106.5,116.5C 106.5,116.167 106.5,115.833 106.5,115.5C 107.721,116.028 108.887,116.695 110,117.5C 110.948,113.903 110.115,110.903 107.5,108.5C 108.496,108.414 109.329,108.748 110,109.5C 110.948,105.903 110.115,102.903 107.5,100.5C 108.496,100.414 109.329,100.748 110,101.5C 110.495,99.5273 110.662,97.5273 110.5,95.5 Z"/></g>
<g><path style="opacity:1" fill="#b4b4b4" d="M 125.5,92.5 C 126.338,92.8417 126.672,93.5084 126.5,94.5C 126.334,99.8437 126.501,105.177 127,110.5C 130.1,107.476 130.267,104.31 127.5,101C 127.667,100.167 127.833,99.3333 128,98.5C 128.333,99.8333 128.667,101.167 129,102.5C 129.495,100.527 129.662,98.5273 129.5,96.5C 130.489,101.975 130.822,107.642 130.5,113.5C 129.732,112.737 129.232,111.737 129,110.5C 128.08,113.101 127.413,115.768 127,118.5C 126.802,116.618 126.302,114.952 125.5,113.5C 125.5,106.5 125.5,99.5 125.5,92.5 Z"/></g>
<g><path style="opacity:1" fill="#616161" d="M 126.5,94.5 C 128.179,94.2852 129.179,94.9519 129.5,96.5C 129.662,98.5273 129.495,100.527 129,102.5C 128.667,101.167 128.333,99.8333 128,98.5C 127.833,99.3333 127.667,100.167 127.5,101C 130.267,104.31 130.1,107.476 127,110.5C 126.501,105.177 126.334,99.8437 126.5,94.5 Z"/></g>
<g><path style="opacity:1" fill="#eeeeee" d="M 94.5,93.5 C 95.8266,97.7825 96.4933,102.449 96.5,107.5C 96.3333,112.167 96.1667,116.833 96,121.5C 95.5814,122.672 94.9147,123.672 94,124.5C 93.1925,114.09 93.3592,103.757 94.5,93.5 Z"/></g>
<g><path style="opacity:1" fill="#efefef" d="M 125.5,92.5 C 125.5,99.5 125.5,106.5 125.5,113.5C 125.5,116.167 125.5,118.833 125.5,121.5C 125.167,121.5 124.833,121.5 124.5,121.5C 121.988,120.133 119.655,120.466 117.5,122.5C 117.158,123.338 116.492,123.672 115.5,123.5C 114.5,123.5 113.5,123.5 112.5,123.5C 112.334,114.161 112.5,104.827 113,95.5C 116.752,92.9231 120.919,91.9231 125.5,92.5 Z"/></g>
<g><path style="opacity:1" fill="#363636" d="M 119.5,113.5 C 120.873,113.343 122.207,113.51 123.5,114C 120.845,115.115 118.179,115.782 115.5,116C 116.858,115.066 118.192,114.232 119.5,113.5 Z"/></g>
<g><path style="opacity:1" fill="#3b3b3b" d="M 117.5,106.5 C 121.221,106.793 121.055,107.459 117,108.5C 116.5,108.333 116,108.167 115.5,108C 116.416,107.722 117.082,107.222 117.5,106.5 Z"/></g>
<g><path style="opacity:1" fill="#3c3c3c" d="M 120.5,97.5 C 121.552,97.3505 122.552,97.5172 123.5,98C 121.253,99.3088 118.92,99.9755 116.5,100C 117.858,99.0656 119.192,98.2323 120.5,97.5 Z"/></g>
<g><path style="opacity:1" fill="#f6f6f6" d="M 110.5,95.5 C 110.662,97.5273 110.495,99.5273 110,101.5C 109.329,100.748 108.496,100.414 107.5,100.5C 110.115,102.903 110.948,105.903 110,109.5C 109.329,108.748 108.496,108.414 107.5,108.5C 110.115,110.903 110.948,113.903 110,117.5C 108.887,116.695 107.721,116.028 106.5,115.5C 104.218,114.61 101.885,114.444 99.5,115C 101.813,115.662 104.146,116.162 106.5,116.5C 107.261,117.391 108.261,118.058 109.5,118.5C 110.429,119.689 110.762,121.022 110.5,122.5C 110.158,123.338 109.492,123.672 108.5,123.5C 108.082,122.778 107.416,122.278 106.5,122C 103.518,121.502 100.518,121.335 97.5,121.5C 97.5,111.5 97.5,101.5 97.5,91.5C 102.636,90.6634 106.969,91.9967 110.5,95.5 Z"/></g>
<g><path style="opacity:1" fill="#161616" d="M 106.5,115.5 C 106.5,115.833 106.5,116.167 106.5,116.5C 104.146,116.162 101.813,115.662 99.5,115C 101.885,114.444 104.218,114.61 106.5,115.5 Z"/></g>
<g><path style="opacity:1" fill="#4f4f4f" d="M 107.5,108.5 C 104.746,108.216 102.08,107.549 99.5,106.5C 102.589,105.373 105.256,106.039 107.5,108.5 Z"/></g>
<g><path style="opacity:1" fill="#434343" d="M 107.5,100.5 C 104.689,100.174 102.022,99.3409 99.5,98C 102.539,97.7357 105.206,98.5691 107.5,100.5 Z"/></g>
<g><path style="opacity:1" fill="#fdfdfd" d="M 65.5,86.5 C 74.1457,94.479 82.479,102.812 90.5,111.5C 83.1845,120.649 75.0179,128.982 66,136.5C 65.5001,119.837 65.3334,103.17 65.5,86.5 Z"/></g>
<g><path style="opacity:1" fill="#727272" d="M 108.5,78.5 C 108.5,79.8333 109.167,80.5 110.5,80.5C 112.027,80.427 113.027,81.0937 113.5,82.5C 112.603,83.5981 111.77,83.5981 111,82.5C 110.722,83.4158 110.222,84.0825 109.5,84.5C 107.973,84.573 106.973,83.9063 106.5,82.5C 105.209,80.4098 105.876,79.0764 108.5,78.5 Z"/></g>
<g><path style="opacity:1" fill="#878787" d="M 102.5,65.5 C 104.156,67.4602 105.823,69.4602 107.5,71.5C 106.449,72.2223 105.782,73.2223 105.5,74.5C 105.167,74.5 104.833,74.5 104.5,74.5C 103.091,71.6432 101.425,68.9765 99.5,66.5C 99.8041,64.2043 100.804,63.871 102.5,65.5 Z"/></g>
<g><path style="opacity:1" fill="#cecece" d="M 120.5,67.5 C 119.206,68.2899 118.039,69.2899 117,70.5C 116.53,69.4232 116.697,68.4232 117.5,67.5C 118.712,66.7701 119.712,65.7701 120.5,64.5C 121.087,65.2334 121.087,66.2334 120.5,67.5 Z"/></g>
<g><path style="opacity:1" fill="#a9a9a9" d="M 121.5,68.5 C 120.833,68.5 120.5,68.1667 120.5,67.5C 126.338,63.5823 126.671,63.9156 121.5,68.5 Z"/></g>
<g><path style="opacity:1" fill="#1b1b1b" d="M 106.5,66.5 C 106.833,66.5 107.167,66.5 107.5,66.5C 108.644,68.1002 109.811,69.7669 111,71.5C 111.494,69.8659 111.66,68.1992 111.5,66.5C 112.167,66.5 112.833,66.5 113.5,66.5C 113.606,71.4635 114.606,71.4635 116.5,66.5C 117.167,66.5 117.5,66.8333 117.5,67.5C 116.697,68.4232 116.53,69.4232 117,70.5C 118.039,69.2899 119.206,68.2899 120.5,67.5C 120.5,68.1667 120.833,68.5 121.5,68.5C 120.89,69.391 120.557,70.391 120.5,71.5C 120.325,74.6673 120.159,78.0007 120,81.5C 118.568,83.4388 116.735,84.7721 114.5,85.5C 113.89,84.609 113.557,83.609 113.5,82.5C 113.027,81.0937 112.027,80.427 110.5,80.5C 110.631,79.7611 110.464,79.0944 110,78.5C 109.31,77.2617 108.81,77.2617 108.5,78.5C 105.876,79.0764 105.209,80.4098 106.5,82.5C 103.444,80.5845 102.778,77.9178 104.5,74.5C 104.833,74.5 105.167,74.5 105.5,74.5C 105.782,73.2223 106.449,72.2223 107.5,71.5C 108.043,71.44 108.376,71.1067 108.5,70.5C 107.82,69.1401 107.153,67.8068 106.5,66.5 Z"/></g>
<g><path style="opacity:1" fill="#9f9f9f" d="M 114.5,77.5 C 116.852,78.5426 117.019,79.8759 115,81.5C 114.51,80.2068 114.343,78.8734 114.5,77.5 Z"/></g>
<g><path style="opacity:1" fill="#f7f7f7" d="M 110.5,80.5 C 109.167,80.5 108.5,79.8333 108.5,78.5C 108.81,77.2617 109.31,77.2617 110,78.5C 110.464,79.0944 110.631,79.7611 110.5,80.5 Z"/></g>
<g><path style="opacity:1" fill="#ababab" d="M 117.5,75.5 C 119.973,75.9473 120.14,76.9473 118,78.5C 117.517,77.552 117.351,76.552 117.5,75.5 Z"/></g>
<g><path style="opacity:1" fill="#9e9e9e" d="M 105.5,74.5 C 111.806,72.8981 112.139,73.8981 106.5,77.5C 105.614,76.675 105.281,75.675 105.5,74.5 Z"/></g>
<g><path style="opacity:1" fill="#e4e4e4" d="M 113.5,75.5 C 113.048,78.6741 112.048,79.0075 110.5,76.5C 111.133,74.4807 112.133,74.1474 113.5,75.5 Z"/></g>
<g><path style="opacity:1" fill="#adadad" d="M 113.5,75.5 C 113.947,73.0268 114.947,72.8601 116.5,75C 115.552,75.4828 114.552,75.6495 113.5,75.5 Z"/></g>
<g><path style="opacity:1" fill="#e8e8e8" d="M 116.5,66.5 C 114.606,71.4635 113.606,71.4635 113.5,66.5C 113.62,65.4138 114.287,64.7472 115.5,64.5C 117.721,64.4387 118.054,65.1054 116.5,66.5 Z"/></g>
<g><path style="opacity:1" fill="#ececec" d="M 111.5,66.5 C 111.66,68.1992 111.494,69.8659 111,71.5C 109.811,69.7669 108.644,68.1002 107.5,66.5C 107.62,65.4138 108.287,64.7472 109.5,64.5C 110.713,64.7472 111.38,65.4138 111.5,66.5 Z"/></g>
<g><path style="opacity:1" fill="#ebebeb" d="M 102.5,65.5 C 102.917,64.8761 103.584,64.5427 104.5,64.5C 105.713,64.7472 106.38,65.4138 106.5,66.5C 107.153,67.8068 107.82,69.1401 108.5,70.5C 108.376,71.1067 108.043,71.44 107.5,71.5C 105.823,69.4602 104.156,67.4602 102.5,65.5 Z"/></g>
<g><path style="opacity:1" fill="#f6f6f6" d="M 99.5,66.5 C 101.425,68.9765 103.091,71.6432 104.5,74.5C 102.778,77.9178 103.444,80.5845 106.5,82.5C 106.973,83.9063 107.973,84.573 109.5,84.5C 111.248,86.1599 111.748,88.1599 111,90.5C 102.5,82 94,73.5 85.5,65C 90.4569,63.9656 95.1236,64.4656 99.5,66.5 Z"/></g>
<g><path style="opacity:1" fill="#ebebeb" d="M 63.5,61.5 C 74.1667,61.5 84.8333,61.5 95.5,61.5C 85.5,62.1667 75.5,62.8333 65.5,63.5C 64.713,84.1568 64.3797,104.823 64.5,125.5C 63.5027,104.34 63.1694,83.0065 63.5,61.5 Z"/></g>
<g><path style="opacity:1" fill="#dfdfdf" d="M 111.5,165.5 C 110.539,167.265 110.205,169.265 110.5,171.5C 108.473,171.662 106.473,171.495 104.5,171C 106.058,170.79 107.391,170.29 108.5,169.5C 108.318,167.409 108.652,165.409 109.5,163.5C 110.723,162.386 112.056,162.219 113.5,163C 112.244,163.417 111.577,164.25 111.5,165.5 Z"/></g>
<g><path style="opacity:1" fill="#464646" d="M 79.5,167.5 C 85.8217,168.014 92.155,168.347 98.5,168.5C 98.5,169.167 98.5,169.833 98.5,170.5C 92.0031,169.956 85.6698,168.956 79.5,167.5 Z"/></g>
<g><path style="opacity:1" fill="#9c9c9c" d="M 152.5,169.5 C 154.379,169.393 154.712,169.893 153.5,171C 150.125,171.632 149.791,171.132 152.5,169.5 Z"/></g>
<g><path style="opacity:1" fill="#3e3e3e" d="M 111.5,165.5 C 111.988,168.711 111.321,171.544 109.5,174C 110,174.5 110.5,175 111,175.5C 112.039,174.29 113.206,173.29 114.5,172.5C 114.5,172.833 114.5,173.167 114.5,173.5C 113.542,174.962 112.376,176.295 111,177.5C 108.21,174.535 105.043,172.202 101.5,170.5C 103.717,169.631 106.05,169.298 108.5,169.5C 107.391,170.29 106.058,170.79 104.5,171C 106.473,171.495 108.473,171.662 110.5,171.5C 110.205,169.265 110.539,167.265 111.5,165.5 Z"/></g>
<g><path style="opacity:1" fill="#0a0a0a" d="M 167.5,171.5 C 171.293,174.125 174.626,177.291 177.5,181C 177,181.5 176.5,182 176,182.5C 173.5,178.667 170.333,175.5 166.5,173C 167.056,172.617 167.389,172.117 167.5,171.5 Z"/></g>
<g><path style="opacity:1" fill="#d5d5d5" d="M 93.5,173.5 C 89.03,174.486 84.3633,174.819 79.5,174.5C 77.8967,174.688 76.5634,174.188 75.5,173C 81.5368,172.303 87.5368,172.47 93.5,173.5 Z"/></g>
<g><path style="opacity:1" fill="#bfbfbf" d="M 144.5,174.5 C 140.629,174.815 136.962,174.482 133.5,173.5C 138.796,172.491 144.129,172.324 149.5,173C 148.095,174.269 146.429,174.769 144.5,174.5 Z"/></g>
<g><path style="opacity:1" fill="#191919" d="M 171.5,167.5 C 175.314,167.651 176.981,169.651 176.5,173.5C 178.927,173.523 181.26,174.023 183.5,175C 180.485,175.201 177.485,174.868 174.5,174C 175.592,170.797 174.259,169.131 170.5,169C 171.056,168.617 171.389,168.117 171.5,167.5 Z"/></g>
<g><path style="opacity:1" fill="#565656" d="M 93.5,173.5 C 96.0673,173.721 98.4006,174.388 100.5,175.5C 93.6457,175.176 86.979,175.509 80.5,176.5C 79.6618,176.158 79.3284,175.492 79.5,174.5C 84.3633,174.819 89.03,174.486 93.5,173.5 Z"/></g>
<g><path style="opacity:1" fill="#626262" d="M 133.5,173.5 C 136.962,174.482 140.629,174.815 144.5,174.5C 144.672,175.492 144.338,176.158 143.5,176.5C 136.687,175.509 129.687,175.175 122.5,175.5C 125.974,174.475 129.64,173.808 133.5,173.5 Z"/></g>
<g><path style="opacity:1" fill="#1c1c1c" d="M 55.5,179.5 C 52.5114,180.751 51.5114,182.751 52.5,185.5C 50.8042,185.315 49.4709,184.481 48.5,183C 52.0079,179.825 55.1745,176.325 58,172.5C 58.5,173 59,173.5 59.5,174C 57.5359,175.451 56.2026,177.284 55.5,179.5 Z"/></g>
<g><path style="opacity:1" fill="#f6f6f6" d="M 122.5,175.5 C 129.687,175.175 136.687,175.509 143.5,176.5C 135.245,177.634 126.912,177.801 118.5,177C 119.563,175.812 120.897,175.312 122.5,175.5 Z"/></g>
<g><path style="opacity:1" fill="#dfdfdf" d="M 80.5,176.5 C 86.979,175.509 93.6457,175.176 100.5,175.5C 101.922,175.709 103.255,176.209 104.5,177C 96.4211,177.8 88.4211,177.633 80.5,176.5 Z"/></g>
<g><path style="opacity:1" fill="#ececec" d="M 85.5,179.5 C 92.6769,178.181 100.01,178.181 107.5,179.5C 100.154,180.727 92.8207,180.727 85.5,179.5 Z"/></g>
<g><path style="opacity:1" fill="#efefef" d="M 116.5,178.5 C 123.508,178.334 130.508,178.5 137.5,179C 130.274,180.594 122.94,180.928 115.5,180C 116.056,179.617 116.389,179.117 116.5,178.5 Z"/></g>
<g><path style="opacity:1" fill="#202020" d="M 156.5,179.5 C 159.822,182.923 162.822,186.756 165.5,191C 165,191.5 164.5,192 164,192.5C 163.333,191.167 162.667,191.167 162,192.5C 161.248,187.825 159.081,183.992 155.5,181C 156.056,180.617 156.389,180.117 156.5,179.5 Z"/></g>
<g><path style="opacity:1" fill="#737373" d="M 55.5,179.5 C 57.2554,180.072 58.9221,180.906 60.5,182C 60,182.5 59.5,183 59,183.5C 57.6244,182.295 56.4577,180.962 55.5,179.5 Z"/></g>
<g><path style="opacity:1" fill="#dadada" d="M 114.5,181.5 C 119.179,181.334 123.845,181.501 128.5,182C 125.374,182.759 122.207,183.259 119,183.5C 117.014,183.431 115.514,182.765 114.5,181.5 Z"/></g>
<g><path style="opacity:1" fill="#d2d2d2" d="M 94.5,182.5 C 99.3477,181.186 104.348,181.186 109.5,182.5C 104.517,183.503 99.5166,183.503 94.5,182.5 Z"/></g>
<g><path style="opacity:1" fill="#717171" d="M 52.5,185.5 C 56.7678,187.315 57.1012,187.982 53.5,187.5C 52.7025,187.043 52.3691,186.376 52.5,185.5 Z"/></g>
<g><path style="opacity:1" fill="#0f0f0f" d="M 72.5,183.5 C 73.3764,183.369 74.0431,183.702 74.5,184.5C 66.6925,200.361 66.0259,200.027 72.5,183.5 Z"/></g>
<g><path style="opacity:1" fill="#131313" d="M 148.5,184.5 C 151.299,187.16 153.633,190.327 155.5,194C 156.833,194.333 158.167,194.667 159.5,195C 157.833,195.667 156.167,195.667 154.5,195C 152.097,191.689 150.097,188.189 148.5,184.5 Z"/></g>
<g><path style="opacity:1" fill="#242424" d="M 77.5,186.5 C 77.8966,185.475 78.5632,185.308 79.5,186C 82.8091,189.077 83.3091,192.577 81,196.5C 78.9973,198.922 76.4973,199.755 73.5,199C 78.9809,197.524 81.1475,194.024 80,188.5C 79.2917,187.619 78.4584,186.953 77.5,186.5 Z"/></g>
<g><path style="opacity:1" fill="#242424" d="M 93.5,191.5 C 96.3356,191.202 96.8356,191.869 95,193.5C 94.3051,197.533 93.4717,201.533 92.5,205.5C 91.6919,205.192 91.0253,204.692 90.5,204C 91.7308,199.909 92.7308,195.743 93.5,191.5 Z"/></g>
<g><path style="opacity:1" fill="#9b9b9b" d="M 117.5,206.5 C 118.097,206.265 118.43,205.765 118.5,205C 117.944,203.989 117.278,203.156 116.5,202.5C 117.818,199.435 117.818,196.269 116.5,193C 117.833,192.333 119.167,192.333 120.5,193C 119.857,197.784 119.191,202.617 118.5,207.5C 117.893,207.376 117.56,207.043 117.5,206.5 Z"/></g>
<g><path style="opacity:1" fill="#1b1b1b" d="M 136.5,191.5 C 137.189,190.226 138.023,190.226 139,191.5C 139.595,192.899 139.428,194.232 138.5,195.5C 140.375,196.54 141.708,198.04 142.5,200C 142.387,201.28 141.72,202.113 140.5,202.5C 140.55,201.152 140.217,199.652 139.5,198C 137.866,197.506 136.199,197.34 134.5,197.5C 134.104,200.044 134.771,202.211 136.5,204C 135.552,204.483 134.552,204.649 133.5,204.5C 133.316,199.918 131.982,195.751 129.5,192C 130.167,191.333 130.833,191.333 131.5,192C 131.966,194.123 133.133,195.623 135,196.5C 135.772,196.355 136.439,196.022 137,195.5C 137.765,193.934 137.598,192.601 136.5,191.5 Z"/></g>
<g><path style="opacity:1" fill="#252525" d="M 116.5,202.5 C 117.278,203.156 117.944,203.989 118.5,205C 118.43,205.765 118.097,206.265 117.5,206.5C 114.882,202.709 112.049,199.043 109,195.5C 108.207,199.423 108.374,203.256 109.5,207C 108.5,207.667 107.5,207.667 106.5,207C 107.833,202.667 107.833,198.333 106.5,194C 107.5,193.333 108.5,193.333 109.5,194C 112.2,196.588 114.533,199.421 116.5,202.5 Z"/></g>
</svg>
